<svg width="74" height="84" viewBox="0 0 74 84" fill="none" xmlns="http://www.w3.org/2000/svg">
<path fill-rule="evenodd" clip-rule="evenodd" d="M36.9761 83.4047C57.2442 78.2707 68.5887 61.3476 71.3417 33.2056C71.8639 27.6913 72.1012 21.7492 71.9588 15.3792C67.1172 12.0516 63.6047 7.58316 61.5162 2.44916C54.6336 1.2132 45.8049 0.595215 36.9761 0.595215C28.1949 0.595215 19.3661 1.2132 12.436 2.44916C10.3475 7.58316 6.78754 12.0516 1.99344 15.3792C1.89851 21.0837 2.04091 26.4078 2.46811 31.3992C4.88889 60.6345 16.2808 78.1757 36.9761 83.4047Z" fill="#9E6F00"/>
<path fill-rule="evenodd" clip-rule="evenodd" d="M13.2907 3.44738C21.0277 2.16388 29.0495 1.5459 37.0239 1.5459C44.9982 1.5459 53.02 2.16388 60.757 3.44738C63.0829 8.8666 66.9751 12.6696 71.1047 16.2824C71.1522 22.89 70.8674 29.0223 70.2028 34.7268C67.2124 60.7771 56.8173 77.3199 37.0239 82.0261C17.2304 77.3199 6.78783 60.7771 3.79745 34.7268C3.18038 29.0223 2.84812 22.8425 2.89559 16.2824C7.02516 12.6696 10.9174 8.81907 13.2907 3.44738Z" fill="#A2A2A2"/>
<path fill-rule="evenodd" clip-rule="evenodd" d="M14.6197 5.1111C21.7871 3.92267 29.3817 3.30469 37.0238 3.30469C44.6659 3.30469 52.213 3.92267 59.3804 5.1111C62.2284 10.1025 65.5985 14.0005 69.6331 17.5183C69.5857 23.4604 69.3009 29.2124 68.6364 34.5841C65.8833 57.4494 57.102 74.6102 36.9763 80.6475C16.7557 74.6102 7.97438 57.3068 5.31627 34.2513C4.69921 28.9272 4.41441 23.3178 4.36694 17.4707C8.40158 14.0005 11.7717 10.1025 14.6197 5.1111Z" fill="url(#paint0_radial)"/>
<path fill-rule="evenodd" clip-rule="evenodd" d="M15.6165 6.15713C22.5941 5.01624 29.809 4.4458 37.0238 4.4458C44.2387 4.4458 51.4536 5.01624 58.4312 6.15713C61.9437 11.7665 65.3612 15.4744 68.589 18.0889C68.6364 23.8884 68.3042 29.4027 67.6871 34.6318C64.8391 57.8299 55.2034 74.7055 37.0713 79.6019C19.129 74.7531 9.49338 58.2577 6.503 35.5826C5.791 30.0683 5.45874 24.2212 5.45874 18.0414C8.68645 15.4744 12.104 11.719 15.6165 6.15713Z" fill="#3B3B3B"/>
<path fill-rule="evenodd" clip-rule="evenodd" d="M37.0238 73.8973C37.0238 73.8498 37.0238 73.8498 37.0238 73.8973C50.5992 68.9535 59.1431 58.8281 61.8487 41.8098C62.6556 36.6283 62.9404 30.7813 62.6556 24.2211C58.9533 21.8918 56.5799 18.7544 54.6338 14.6187C50.884 13.6204 43.9539 13.145 37.0238 13.145C30.0937 13.145 23.1636 13.6679 19.4138 14.6187C17.4677 18.7544 15.0944 21.8918 11.392 24.2211C11.1072 30.7337 11.3445 36.5808 12.1989 41.8098C14.857 58.7806 23.4484 68.906 37.0238 73.8973C36.9763 73.8498 36.9763 73.8498 37.0238 73.8973C36.9763 73.8498 36.9763 73.8498 37.0238 73.8973C37.0238 73.8498 37.0238 73.8498 37.0238 73.8973Z" fill="url(#paint1_radial)"/>
<path fill-rule="evenodd" clip-rule="evenodd" d="M37.0237 72.8516C36.9762 72.8516 36.9762 72.8516 37.0237 72.8516C36.9762 72.8516 36.9762 72.8516 37.0237 72.8516C24.3502 67.9552 15.7588 58.3052 13.1956 41.6197C12.4362 36.7234 12.1988 31.2566 12.5311 25.0768C16.0436 22.2721 18.5118 19.1822 20.2206 15.4743C25.0147 14.5711 31.043 14.1433 37.0712 14.1433C43.0994 14.1433 49.1276 14.5711 53.8743 15.4743C55.583 19.1347 58.0513 22.2721 61.5638 25.0768C61.8961 31.2091 61.6587 36.7234 60.8993 41.6197C58.2886 58.3052 49.6972 67.9552 37.0237 72.8516Z" fill="#A2A2A2"/>
<path fill-rule="evenodd" clip-rule="evenodd" d="M8.30667 49.6535C5.50616 41.8099 1.99365 26.8357 12.4837 12.0042C4.27204 22.8426 2.46832 34.9645 7.87948 50.319C13.9077 67.4323 25.4895 80.505 49.6973 82.3114C49.6973 81.7885 49.7448 81.3132 49.7448 80.7902C26.2015 79.3166 15.8538 69.1437 8.30667 49.6535Z" fill="url(#paint2_radial)"/>
<path fill-rule="evenodd" clip-rule="evenodd" d="M65.6936 49.6535C68.4941 41.8099 72.0066 26.8357 61.5165 12.0042C69.6808 22.8426 71.4845 34.9645 66.0733 50.319C60.0451 67.4323 48.4633 80.505 24.2555 82.3114C24.2555 81.7885 24.208 81.3132 24.208 80.7902C47.7988 79.3166 58.1464 69.1437 65.6936 49.6535Z" fill="url(#paint3_radial)"/>
<path fill-rule="evenodd" clip-rule="evenodd" d="M57.3394 53.9318C55.3933 58.3052 52.8301 61.9656 49.6973 64.9604C47.7037 63.0589 46.612 59.3035 46.4221 53.7892C45.5677 41.287 41.5331 38.3872 37.3086 32.4451C47.0867 35.3448 52.0706 41.1443 55.3933 50.319C55.8205 51.6976 56.5325 52.9811 57.3394 53.9318Z" fill="url(#paint4_radial)"/>
<path fill-rule="evenodd" clip-rule="evenodd" d="M24.3027 64.9604C21.1699 61.9656 18.6068 58.3052 16.6606 53.9318C17.515 53.0286 18.1796 51.6976 18.6542 50.319C21.9294 41.1443 26.9134 35.3448 36.6914 32.4451C32.4669 38.3872 28.4323 41.287 27.5304 53.7417C27.3406 59.3035 26.2963 63.0114 24.3027 64.9604Z" fill="url(#paint5_radial)"/>
<path fill-rule="evenodd" clip-rule="evenodd" d="M15.8063 8.39135C15.7589 8.05859 15.7589 7.82091 15.8538 7.58322C15.9013 7.34554 15.9962 7.20293 16.1386 7.06031C16.2335 6.9177 16.4234 6.87017 16.6133 6.82263C16.8981 6.77509 17.1354 6.87017 17.3252 7.06031C17.5151 7.25046 17.6575 7.58322 17.705 8.05859C17.7524 8.48643 17.705 8.86672 17.5626 9.15194C17.4202 9.38963 17.2303 9.53224 16.9455 9.57978C16.6607 9.62732 16.4234 9.53224 16.281 9.34209C15.9962 9.15194 15.8538 8.81919 15.8063 8.39135ZM16.1861 8.29628C16.2335 8.5815 16.281 8.81919 16.4234 8.9618C16.5658 9.10441 16.6607 9.15194 16.8031 9.15194C16.9455 9.10441 17.0879 9.00933 17.1354 8.86672C17.2303 8.67657 17.2303 8.43889 17.1828 8.15367C17.1354 7.82091 17.0879 7.63076 16.9455 7.48815C16.8506 7.34554 16.7082 7.298 16.5658 7.34554C16.4234 7.39307 16.281 7.48815 16.2335 7.63076C16.1861 7.72583 16.1386 7.96352 16.1861 8.29628ZM18.417 7.72583L18.0372 7.77337V7.39307C18.0372 7.20293 18.0372 7.01278 18.0372 6.9177C18.0847 6.77509 18.1322 6.68002 18.2746 6.63248L18.3695 6.82263C18.322 6.87017 18.2746 6.9177 18.2271 6.96524C18.1796 7.01278 18.1796 7.10785 18.1796 7.20293L18.3695 7.15539L18.417 7.72583ZM18.9391 9.19948L18.8916 8.72411L19.746 6.87017L18.8442 6.96524L18.7967 6.48987L20.1732 6.29972L20.2207 6.72755L19.3663 8.67657L20.458 8.53396L20.5055 9.00933L18.9391 9.19948ZM20.6004 6.29972L21.3599 6.20465C21.5497 6.15711 21.6921 6.20465 21.7871 6.20465C21.882 6.25218 21.9295 6.29972 22.0244 6.3948C22.0719 6.48987 22.1193 6.63248 22.1668 6.77509C22.1668 6.9177 22.1668 7.01278 22.1193 7.15539C22.0719 7.25046 22.0244 7.34554 21.9295 7.39307C22.0244 7.44061 22.1193 7.48815 22.2143 7.58322C22.3092 7.6783 22.3092 7.82091 22.3567 7.96352C22.3567 8.15367 22.3567 8.34381 22.2617 8.48643C22.2143 8.62904 22.1193 8.72411 21.9769 8.77165C21.882 8.81919 21.7396 8.81919 21.4548 8.86672L20.7903 8.9618L20.6004 6.29972ZM21.0276 6.68002L21.0751 7.298L21.3124 7.25046C21.4548 7.25046 21.5497 7.20293 21.5972 7.20293C21.6447 7.20293 21.6921 7.15539 21.7396 7.10785C21.7871 7.06031 21.7871 6.96524 21.7871 6.87017C21.7871 6.77509 21.7396 6.72755 21.7396 6.68002C21.6921 6.63248 21.6447 6.58494 21.6447 6.58494C21.5972 6.58494 21.5023 6.58494 21.265 6.63248L21.0276 6.68002ZM21.1226 7.77337L21.17 8.48643L21.5023 8.43889C21.6447 8.43889 21.7396 8.39135 21.7871 8.39135C21.8345 8.34381 21.882 8.34381 21.882 8.24874C21.9295 8.2012 21.9295 8.10613 21.9295 8.01106C21.9295 7.91598 21.882 7.86844 21.882 7.82091C21.8345 7.77337 21.7871 7.72583 21.7396 7.72583C21.6921 7.72583 21.5972 7.72583 21.4074 7.72583L21.1226 7.77337ZM22.9263 8.72411L22.7364 6.0145L24.1604 5.87189L24.2079 6.34726L23.1636 6.44233L23.2111 7.06031L24.1604 6.96524L24.2079 7.44061L23.2585 7.53568L23.306 8.24874L24.3503 8.15367L24.3977 8.62904L22.9263 8.72411ZM24.8249 8.53396L24.6825 5.82435L25.0623 5.77681L25.1572 6.96524L25.8692 5.72928L26.3913 5.68174L25.7268 6.77509L26.5812 8.34381L26.1065 8.39135L25.4895 7.15539L25.2047 7.63076L25.2521 8.43889L24.8249 8.53396ZM26.866 8.39135L26.7236 5.68174H27.1033L27.2457 8.39135H26.866ZM27.6254 7.44061L28.0052 7.34554C28.0526 7.6783 28.195 7.86844 28.4324 7.82091C28.5273 7.82091 28.6222 7.77337 28.7172 7.6783C28.7646 7.58322 28.8121 7.53568 28.8121 7.39307C28.8121 7.34554 28.8121 7.298 28.7646 7.25046C28.7172 7.20293 28.7172 7.15539 28.6697 7.15539C28.6222 7.10785 28.5273 7.10785 28.3374 7.06031C28.195 7.01278 28.0526 6.96524 27.9577 6.9177C27.8628 6.87017 27.8153 6.77509 27.7678 6.68002C27.7204 6.58494 27.6729 6.44233 27.6729 6.34726C27.6729 6.20465 27.6729 6.06204 27.7204 5.96696C27.7678 5.82435 27.8628 5.72928 27.9577 5.68174C28.0526 5.6342 28.195 5.58667 28.3374 5.58667C28.5748 5.58667 28.7172 5.6342 28.8596 5.77681C29.002 5.91942 29.0494 6.10957 29.0969 6.34726L28.7172 6.3948C28.7172 6.25218 28.6697 6.15711 28.5748 6.10957C28.5273 6.06204 28.4324 6.0145 28.3374 6.0145C28.2425 6.0145 28.1476 6.06204 28.1001 6.10957C28.0526 6.15711 28.0052 6.20465 28.0052 6.29972C28.0052 6.3948 28.0526 6.44233 28.1001 6.48987C28.1476 6.53741 28.29 6.58494 28.4798 6.63248C28.6697 6.68002 28.8121 6.72755 28.907 6.82263C29.002 6.87017 29.0494 6.96524 29.0969 7.10785C29.1444 7.20293 29.1918 7.34554 29.1918 7.53568C29.1918 7.77337 29.1444 7.96352 29.0494 8.15367C28.9545 8.34381 28.7646 8.39135 28.4798 8.43889C28.0052 8.34381 27.7204 8.05859 27.6254 7.44061ZM30.1412 8.15367L30.0937 5.91942H29.5241V5.44405L31.043 5.39652V5.87189H30.4734L30.5209 8.10613L30.1412 8.15367ZM31.3278 6.77509C31.3278 6.44233 31.3753 6.20465 31.4227 5.96696C31.5177 5.77681 31.6126 5.58667 31.755 5.49159C31.8974 5.39652 32.0398 5.34898 32.2297 5.34898C32.5145 5.34898 32.7043 5.44405 32.8942 5.68174C33.0841 5.91942 33.179 6.25218 33.179 6.72755C33.179 7.15539 33.0841 7.53568 32.9417 7.77337C32.7993 8.01106 32.5619 8.10613 32.2771 8.10613C31.9923 8.10613 31.8025 8.01106 31.6126 7.77337C31.4227 7.53568 31.3278 7.20293 31.3278 6.77509ZM31.7075 6.72755C31.7075 7.06031 31.755 7.25046 31.8499 7.44061C31.9449 7.58322 32.0873 7.6783 32.2297 7.6783C32.3721 7.6783 32.5145 7.58322 32.6094 7.44061C32.7043 7.298 32.7518 7.06031 32.7518 6.72755C32.7518 6.3948 32.7043 6.20465 32.6094 6.0145C32.5145 5.87189 32.3721 5.77681 32.2297 5.77681C32.0873 5.77681 31.9449 5.87189 31.8499 6.0145C31.755 6.15711 31.7075 6.3948 31.7075 6.72755ZM33.6537 8.01106V5.30144H34.0334L34.7929 7.10785V5.30144H35.1726V8.01106H34.7929L34.0334 6.25218V8.01106H33.6537ZM37.0238 7.96352V5.25391H37.8307C38.0206 5.25391 38.163 5.30144 38.2579 5.34898C38.3528 5.39652 38.4003 5.49159 38.4952 5.58667C38.5427 5.72928 38.5902 5.87189 38.5902 6.0145C38.5902 6.20465 38.5427 6.3948 38.4478 6.53741C38.3528 6.68002 38.2579 6.72755 38.068 6.77509C38.163 6.82263 38.2104 6.9177 38.2579 7.01278C38.3054 7.10785 38.4003 7.25046 38.4952 7.44061L38.7326 7.96352H38.2579L37.9731 7.39307C37.8782 7.20293 37.7832 7.06031 37.7832 7.01278C37.7358 6.96524 37.6883 6.9177 37.6883 6.9177C37.6408 6.9177 37.5934 6.87017 37.4984 6.87017H37.4035V8.01106L37.0238 7.96352ZM37.4035 6.3948H37.6883C37.8782 6.3948 37.9731 6.3948 38.0206 6.34726C38.068 6.34726 38.1155 6.29972 38.1155 6.25218C38.163 6.20465 38.163 6.10957 38.163 6.0145C38.163 5.91942 38.163 5.87189 38.1155 5.82435C38.068 5.77681 38.068 5.72928 37.9731 5.72928C37.9256 5.72928 37.8307 5.72928 37.6408 5.72928H37.356V6.3948H37.4035ZM39.1123 7.96352L39.1598 5.25391L40.5837 5.30144V5.77681H39.5395V6.3948H40.4888V6.87017H39.5395V7.58322H40.5837V8.05859L39.1123 7.96352ZM40.9635 7.15539L41.3432 7.10785C41.3907 7.44061 41.5331 7.63076 41.7704 7.63076C41.8653 7.63076 41.9603 7.58322 42.0552 7.53568C42.1027 7.48815 42.1501 7.39307 42.1501 7.298C42.1501 7.25046 42.1501 7.20293 42.1027 7.15539C42.1027 7.10785 42.0552 7.06031 42.0077 7.06031C41.9603 7.01278 41.8653 6.96524 41.6755 6.9177C41.5331 6.87017 41.3907 6.77509 41.2957 6.72755C41.2008 6.68002 41.1533 6.58494 41.1059 6.44233C41.0584 6.34726 41.0584 6.20465 41.0584 6.10957C41.0584 5.96696 41.1059 5.82435 41.1533 5.72928C41.2008 5.6342 41.2957 5.53913 41.3907 5.44405C41.4856 5.39652 41.628 5.34898 41.7704 5.34898C42.0077 5.34898 42.1501 5.44405 42.2925 5.58667C42.4349 5.72928 42.4824 5.91942 42.4824 6.20465H42.1027C42.1027 6.06204 42.0552 5.96696 42.0077 5.91942C41.9603 5.87189 41.8653 5.82435 41.7704 5.82435C41.6755 5.82435 41.5805 5.82435 41.5331 5.87189C41.4856 5.91943 41.4381 5.96696 41.4381 6.06204C41.4381 6.15711 41.4381 6.20465 41.5331 6.25218C41.5805 6.29972 41.6755 6.34726 41.8653 6.44233C42.0552 6.48987 42.1976 6.58494 42.2925 6.68002C42.3875 6.77509 42.4349 6.87017 42.4824 6.96524C42.5299 7.06031 42.5299 7.20293 42.5299 7.39307C42.5299 7.63076 42.4824 7.82091 42.34 7.96352C42.1976 8.10613 42.0077 8.2012 41.7704 8.2012C41.2483 8.10613 41.0109 7.77337 40.9635 7.15539ZM42.9096 8.15367L43.0045 5.44405L43.6216 5.49159C43.8589 5.49159 44.0013 5.53913 44.0488 5.53913C44.1437 5.58667 44.2387 5.68174 44.3336 5.82435C44.3811 5.96696 44.4285 6.15711 44.4285 6.34726C44.4285 6.53741 44.3811 6.72755 44.3336 6.82263C44.2861 6.96524 44.1912 7.06031 44.0963 7.10785C44.0013 7.15539 43.8589 7.15539 43.6216 7.15539H43.3843L43.3368 8.15367H42.9096ZM43.3843 5.91942V6.68002H43.5741C43.7165 6.68002 43.8115 6.68002 43.8589 6.68002C43.9064 6.68002 43.9539 6.63248 44.0013 6.53741C44.0488 6.48987 44.0488 6.3948 44.0488 6.29972C44.0488 6.20465 44.0488 6.15711 44.0013 6.06204C43.9539 6.0145 43.9064 5.96696 43.8589 5.91942C43.8115 5.91942 43.7165 5.87189 43.5267 5.87189L43.3843 5.91942ZM44.9506 5.53913H45.3304L45.2829 7.01278C45.2829 7.25046 45.2829 7.39307 45.2829 7.44061C45.2829 7.58322 45.3304 7.6783 45.3778 7.72583C45.4253 7.77337 45.5202 7.82091 45.6152 7.82091C45.7101 7.82091 45.7576 7.82091 45.8525 7.77337C45.9 7.72583 45.9474 7.6783 45.9949 7.58322C46.0424 7.48815 46.0424 7.34554 46.0424 7.06031L46.0898 5.58667H46.4696L46.4221 7.01278C46.4221 7.39307 46.3746 7.63076 46.3272 7.77337C46.2797 7.91598 46.1848 8.05859 46.0898 8.15367C45.9474 8.24874 45.805 8.29628 45.6152 8.29628C45.4253 8.29628 45.2829 8.24874 45.1405 8.15367C45.0456 8.05859 44.9506 7.96352 44.9032 7.77337C44.8557 7.63076 44.8557 7.34554 44.8557 6.9177L44.9506 5.53913ZM47.0866 5.6342L47.8461 5.68174C48.036 5.68174 48.1784 5.72928 48.2733 5.77681C48.3682 5.82435 48.4157 5.91942 48.4632 6.0145C48.5106 6.10957 48.5581 6.25218 48.5106 6.3948C48.5106 6.53741 48.4632 6.63248 48.4157 6.72755C48.3682 6.82263 48.2733 6.9177 48.2258 6.96524C48.3208 7.01278 48.4157 7.10785 48.4632 7.20293C48.5106 7.298 48.5581 7.44061 48.5106 7.63076C48.5106 7.82091 48.4632 8.01106 48.3682 8.10613C48.2733 8.24874 48.1784 8.29628 48.0834 8.34381C47.9885 8.34381 47.8461 8.34381 47.5613 8.34381L46.8968 8.29628L47.0866 5.6342ZM47.4189 6.10957L47.3714 6.72755H47.6088C47.7512 6.72755 47.8461 6.72755 47.8936 6.72755C47.941 6.72755 48.036 6.68002 48.036 6.63248C48.0834 6.58494 48.0834 6.53741 48.0834 6.44233C48.0834 6.34726 48.0834 6.29972 48.036 6.25218C47.9885 6.20465 47.9885 6.15711 47.941 6.15711C47.8936 6.15711 47.7986 6.10957 47.5613 6.10957H47.4189ZM47.3714 7.20293L47.324 7.91598L47.6562 7.96352C47.7986 7.96352 47.8936 7.96352 47.941 7.96352C47.9885 7.96352 48.036 7.91598 48.036 7.86844C48.0834 7.82091 48.0834 7.72583 48.0834 7.6783C48.0834 7.58322 48.0834 7.53568 48.036 7.44061C47.9885 7.39307 47.9885 7.34554 47.8936 7.298C47.8461 7.25046 47.7512 7.25046 47.5613 7.25046L47.3714 7.20293ZM48.9853 8.53396L49.1277 5.87189L49.5074 5.91942L49.365 8.15367L50.3143 8.24874L50.2669 8.72411L48.9853 8.53396ZM50.7415 8.72411L50.9314 6.0145L51.3111 6.06204L51.1213 8.77165L50.7415 8.72411ZM51.6434 8.77165L51.8807 6.10957L52.2605 6.15711L52.1655 7.34554L53.0674 6.25218L53.5895 6.29972L52.7826 7.25046L53.3997 8.9618L52.925 8.91426L52.4978 7.58322L52.1655 8.01106L52.0706 8.81918L51.6434 8.77165ZM55.3932 9.24702L54.966 9.19948L54.8711 8.5815L54.1116 8.48643L53.9218 9.05687L53.4946 9.00933L54.4914 6.3948L54.9186 6.44233L55.3932 9.24702ZM54.7762 8.10613L54.5863 7.06031L54.254 8.01106L54.7762 8.10613ZM55.7255 8.43889H56.1052C56.1052 8.77165 56.2476 8.9618 56.485 9.00933C56.5799 9.00933 56.6748 9.00933 56.7698 8.9618C56.8647 8.91426 56.8647 8.81919 56.9122 8.72411C56.9122 8.67657 56.9122 8.62904 56.9122 8.5815C56.9122 8.53396 56.8647 8.48643 56.8172 8.43889C56.7698 8.39135 56.6748 8.34381 56.485 8.24874C56.3426 8.15367 56.2002 8.10613 56.1527 8.01106C56.1052 7.91598 56.0103 7.82091 56.0103 7.72583C55.9628 7.63076 55.9628 7.48815 55.9628 7.34554C55.9628 7.20293 56.0103 7.06031 56.1052 6.96524C56.1527 6.87017 56.2476 6.77509 56.39 6.72755C56.485 6.68002 56.6274 6.68002 56.7698 6.68002C57.0071 6.72755 57.1495 6.82263 57.2444 6.96524C57.3394 7.10785 57.3868 7.34554 57.3868 7.58322L57.0071 7.53568C57.0071 7.39307 56.9596 7.298 56.9122 7.20293C56.8647 7.15539 56.7698 7.10785 56.6748 7.06031C56.5799 7.06031 56.485 7.06031 56.4375 7.10785C56.39 7.15539 56.3426 7.20293 56.3426 7.298C56.3426 7.39307 56.3426 7.44061 56.39 7.48815C56.4375 7.53568 56.5324 7.63076 56.7223 7.6783C56.9122 7.77337 57.0546 7.86844 57.102 7.96352C57.197 8.05859 57.2444 8.15367 57.2919 8.24874C57.3394 8.39135 57.3394 8.48643 57.3394 8.67657C57.2919 8.91426 57.2444 9.10441 57.102 9.24702C56.9596 9.38963 56.7698 9.43717 56.485 9.38963C55.9154 9.38963 55.7255 9.05687 55.7255 8.43889ZM57.6242 9.62732L57.9564 6.96524L58.3362 7.01278L58.0039 9.67485L57.6242 9.62732Z" fill="url(#paint6_radial)"/>
<path fill-rule="evenodd" clip-rule="evenodd" d="M20.8854 13.3826L20.2683 13.4302L19.936 12.7171L18.8443 12.8597L18.7019 13.6678L18.1323 13.7629L18.7494 10.2452L19.319 10.1501L20.8854 13.3826ZM19.6512 12.1467L19.0817 10.9582L18.8918 12.2417L19.6512 12.1467ZM20.9803 9.91241L22.0246 9.81734C22.2619 9.7698 22.4992 9.81734 22.6416 9.86487C22.784 9.91241 22.9264 10.0075 23.0214 10.1026C23.1638 10.2452 23.2587 10.3878 23.3536 10.6255C23.4486 10.8156 23.496 11.1008 23.5435 11.4336C23.591 11.7188 23.591 12.004 23.5435 12.1942C23.496 12.4319 23.4486 12.622 23.3536 12.7171C23.2587 12.8597 23.1638 12.9548 23.0214 13.0499C22.879 13.1449 22.6891 13.1925 22.4992 13.1925L21.36 13.2875L20.9803 9.91241ZM21.6448 10.4353L21.8822 12.6696L22.3094 12.622C22.4992 12.622 22.6416 12.5745 22.6891 12.5269C22.784 12.4794 22.8315 12.4319 22.879 12.3368C22.9264 12.2417 22.9739 12.1467 22.9739 12.004C22.9739 11.8614 22.9739 11.6713 22.9739 11.4336C22.9264 11.1959 22.9264 11.0058 22.879 10.8632C22.8315 10.7205 22.784 10.6255 22.6891 10.5304C22.5942 10.4353 22.4992 10.3878 22.4043 10.3878C22.3094 10.3878 22.167 10.3878 21.9296 10.3878L21.6448 10.4353ZM24.3504 12.9072L24.1131 9.53211L24.6827 9.48458L24.8725 12.2893L26.2491 12.1942L26.2965 12.7646L24.3504 12.9072ZM26.9136 12.7171L26.6763 9.29443L27.2459 9.24689L27.4832 12.6696L26.9136 12.7171ZM28.9546 12.622L28.8597 11.1959L27.7205 9.29443L28.3851 9.24689L29.097 10.5779L29.6666 9.19936L30.3312 9.15182L29.4293 11.1959L29.5242 12.622H28.9546ZM33.2266 12.4319H32.6096L32.3248 11.6713L31.233 11.7188L31.0432 12.4794H30.4261L31.3754 9.05674H31.9925L33.2266 12.4319ZM32.1349 11.1008L31.7077 9.86487L31.3754 11.1484L32.1349 11.1008ZM36.2645 12.3843L35.2677 8.96167H35.8847L36.5967 11.4811L37.2613 8.96167H37.8783L36.8815 12.3843H36.2645ZM40.5839 12.3843H39.9668L39.7295 11.6237H38.6378L38.4004 12.3843H37.7834L38.8751 8.96167H39.4922L40.5839 12.3843ZM39.5396 11.0058L39.1599 9.72226L38.7802 11.0058H39.5396ZM40.8687 12.4319V11.8139L42.4351 9.67473L41.1535 9.62719V9.05674L43.1945 9.15182V9.67473L41.5807 11.909L43.1471 11.9565V12.5269L40.8687 12.4319ZM43.6692 12.5269L43.8116 9.10428H44.3812L44.2388 12.5269H43.6692ZM44.9983 12.5745L45.2356 9.15182L46.4223 9.24689C46.7071 9.24689 46.9444 9.29443 47.0868 9.3895C47.2292 9.43704 47.3241 9.57965 47.3716 9.72226C47.4665 9.86487 47.4665 10.055 47.4665 10.2927C47.4665 10.5779 47.3716 10.7681 47.2292 10.9107C47.0868 11.0533 46.8969 11.1484 46.6596 11.1959C46.7545 11.291 46.8495 11.3861 46.9444 11.4811C47.0393 11.5762 47.1343 11.7664 47.2292 12.0516L47.514 12.7171L46.8495 12.6696L46.5172 11.909C46.3748 11.6237 46.2799 11.4336 46.2324 11.3861C46.1849 11.3385 46.1375 11.2434 46.09 11.2434C46.0425 11.1959 45.9476 11.1959 45.8052 11.1959H45.7103L45.6153 12.622L44.9983 12.5745ZM45.7103 10.673L46.1375 10.7205C46.3748 10.7205 46.5647 10.7205 46.6121 10.7205C46.6596 10.7205 46.7545 10.673 46.802 10.5779C46.8495 10.5304 46.8969 10.4353 46.8969 10.2927C46.8969 10.1976 46.8969 10.1026 46.8495 10.0075C46.802 9.95995 46.7545 9.91241 46.7071 9.86487C46.6596 9.86487 46.5172 9.81734 46.2324 9.81734L45.8052 9.7698L45.7103 10.673ZM48.0361 12.8122L48.2734 9.43704L48.843 9.48458L48.6532 12.2893L50.0297 12.3843L49.9822 12.9548L48.0361 12.8122ZM50.5993 13.0499L50.9316 9.67473L51.5012 9.72226L51.1689 13.0974L50.5993 13.0499ZM53.3523 12.1467L53.3998 11.5762L54.5865 11.7188L54.4441 13.0499C54.3017 13.1925 54.1118 13.2875 53.8745 13.3351C53.6371 13.4302 53.3998 13.4302 53.1625 13.4302C52.8777 13.3826 52.6403 13.2875 52.4505 13.1449C52.2606 13.0023 52.1182 12.7646 52.0233 12.4794C51.9283 12.1942 51.9284 11.8614 51.9758 11.5287C52.0233 11.1484 52.1182 10.8632 52.2606 10.5779C52.403 10.3402 52.5929 10.1501 52.8302 10.055C53.0675 9.95995 53.3049 9.91241 53.5422 9.95995C53.8745 10.0075 54.1118 10.1026 54.3017 10.2927C54.4915 10.4829 54.5865 10.7681 54.5865 11.1008L54.0169 11.1484C54.0169 10.9582 53.9219 10.8156 53.827 10.7205C53.7321 10.6255 53.5897 10.5304 53.4473 10.5304C53.2099 10.4829 53.0201 10.5779 52.8302 10.7205C52.6403 10.9107 52.5454 11.1484 52.4979 11.5287C52.4505 11.9565 52.4979 12.2417 52.6403 12.4794C52.7353 12.6696 52.9251 12.8122 53.1625 12.8122C53.2574 12.8122 53.3998 12.8122 53.4947 12.7646C53.6371 12.7171 53.7321 12.6696 53.827 12.5745L53.8745 12.1467H53.3523ZM55.1086 13.6678L55.6307 10.2927L56.2003 10.3878L55.6782 13.7629L55.1086 13.6678Z" fill="url(#paint7_radial)"/>
<path fill-rule="evenodd" clip-rule="evenodd" d="M54.3013 59.4935C53.1622 61.2048 51.8806 62.726 50.504 64.1521C48.4155 62.2506 47.4187 59.3984 47.2763 52.6957C46.1846 42.5228 43.6689 38.91 39.8716 34.489C45.4251 39.4329 49.0801 43.1408 50.5515 51.4597C50.8838 55.7856 52.3078 58.21 54.3013 59.4935Z" fill="#92AAFF"/>
<path fill-rule="evenodd" clip-rule="evenodd" d="M56.9122 54.8351C56.2476 56.2612 55.4882 57.5922 54.6812 58.8282C52.213 56.9743 51.7383 54.6925 51.1687 51.0321C50.5991 47.1816 49.1752 41.5247 41.8179 35.2974C45.9 36.6759 50.0295 41.2395 52.4978 45.6604C54.3964 49.7962 54.8711 53.0287 56.9122 54.8351Z" fill="#92AAFF"/>
<path fill-rule="evenodd" clip-rule="evenodd" d="M17.3253 21.2738C17.5152 21.0361 17.705 20.7984 17.8949 20.5608L31.3753 14.8563C33.2265 14.8088 35.1252 14.7612 37.0238 14.7612C38.9225 14.7612 40.7737 14.8088 42.6248 14.9038L56.1053 20.6083C56.2951 20.846 56.485 21.0837 56.6749 21.3213L41.2483 14.9989L57.9565 24.7915C57.909 24.8866 57.8141 25.0292 57.7666 25.1243L40.9161 15.5218L56.2002 27.4061C56.1053 27.5012 56.0578 27.5962 55.9629 27.7388L40.5838 16.0447L54.2066 29.8305C54.1117 29.9255 54.0168 30.0206 53.9218 30.1157L40.1566 16.4726L51.8333 31.9221C51.7384 32.0172 51.6434 32.0647 51.501 32.1598L39.6345 16.8529L49.2227 33.681C49.1277 33.7285 48.9853 33.8236 48.8904 33.8711L39.1123 17.1381L46.4222 35.1071C46.2798 35.1546 46.1848 35.2022 46.0424 35.2497L38.5427 17.3758L43.4318 36.1054C43.2894 36.1529 43.1944 36.1529 43.052 36.2004L37.9257 17.5659L40.3465 36.7709C40.2041 36.7709 40.0617 36.8184 39.9667 36.8184L37.3561 17.6135L37.2612 37.0086C37.1188 37.0086 36.9764 37.0086 36.8814 37.0086L36.7865 17.6135L34.1758 36.8184C34.0334 36.8184 33.891 36.7709 33.7961 36.7709L36.0745 17.5659L30.9481 36.248C30.8057 36.2004 30.7108 36.2004 30.5684 36.1529L35.4574 17.4233L27.9578 35.2497C27.8154 35.2022 27.7204 35.1546 27.578 35.1071L34.8878 17.1381L25.1572 33.8711C25.0623 33.8236 24.9199 33.7285 24.825 33.681L34.4132 16.8529L22.5466 32.1598C22.4517 32.0647 22.3567 32.0172 22.2143 31.9221L33.891 16.4726L20.1258 30.0682C20.0309 29.9731 19.9359 29.878 19.841 29.7829L33.4638 15.9972L18.0373 27.7388C17.9424 27.6438 17.8949 27.5487 17.8 27.4061L33.0841 15.5218L16.2336 25.1243C16.1861 25.0292 16.0912 24.8866 16.0437 24.7915L32.7519 14.9989L17.3253 21.2738ZM19.6986 17.8036C19.7935 17.6135 19.8885 17.4233 20.0309 17.2332L27.4831 15.1891C28.4799 15.094 29.4767 15.0465 30.5209 14.9514L19.6986 17.8036ZM43.4792 14.9514C44.5235 14.9989 45.5203 15.094 46.5171 15.1891L53.9693 17.2332C54.0642 17.4233 54.1592 17.6135 54.3016 17.8036L43.4792 14.9514Z" fill="url(#paint8_radial)"/>
<path fill-rule="evenodd" clip-rule="evenodd" d="M23.496 64.1521C22.1195 62.726 20.8379 61.1573 19.6987 59.4935C21.6448 58.21 23.0688 55.7856 23.4486 51.4597C24.92 43.1408 28.5749 39.4329 34.1285 34.489C30.3312 38.91 27.8155 42.5703 26.7237 52.6957C26.5813 59.3984 25.5846 62.2506 23.496 64.1521Z" fill="#92AAFF"/>
<path fill-rule="evenodd" clip-rule="evenodd" d="M19.3188 58.8756C18.5119 57.6397 17.7524 56.2611 17.0879 54.8825C19.1289 53.0761 19.6036 49.8436 21.5023 45.7554C23.9705 41.3345 28.1001 36.7709 32.1822 35.3923C24.8249 41.6197 23.3534 47.2766 22.8313 51.1271C22.2617 54.6924 21.7871 56.9741 19.3188 58.8756Z" fill="#92AAFF"/>
<path fill-rule="evenodd" clip-rule="evenodd" d="M37.0238 20.6558C37.451 20.6558 37.7832 20.9885 37.7832 21.4164C37.7832 21.7491 37.5934 21.9868 37.3086 22.1294L37.4035 22.4146C37.4035 23.1277 37.4035 23.8407 37.4035 24.6013C37.6883 24.7439 37.8307 25.0767 37.9256 25.457C37.9256 26.0274 37.9256 26.5504 37.9256 27.1208C37.8782 27.4536 37.8307 27.7388 37.6408 27.9289C37.6408 28.0715 37.6408 28.2617 37.6408 28.4043C37.9256 28.4994 38.1629 28.6895 38.3528 28.8797C39.2072 28.4043 39.9192 28.1666 40.4888 28.2142C42.34 28.2142 43.1469 29.4977 44.8082 29.8779C45.9 30.2107 46.9442 30.2582 47.7037 30.0681C47.5613 29.8304 47.5138 29.5927 47.5138 29.3075C47.5138 28.4994 48.1783 27.7863 49.0327 27.7863C49.8397 27.7863 50.5517 28.4518 50.5517 29.3075C50.5517 30.1156 50.1245 30.6385 49.5074 30.9713L53.8743 41.7147H55.7255C54.5388 43.3785 52.83 44.757 49.2226 44.8521C46.1848 44.8521 43.9064 43.8063 42.4824 41.7622H44.1437L48.3682 31.3041C47.1341 31.5417 45.6626 31.3041 44.9032 31.1614C43.764 31.0188 42.1501 30.4484 40.8211 30.0681C40.0616 29.9255 39.2547 30.1632 38.5427 30.4009C38.4003 30.8287 38.0205 31.209 37.5933 31.3516C37.5933 33.3482 37.5933 35.3447 37.5933 37.3413C38.8275 37.4839 38.5427 39.1477 37.5933 39.3378C38.0205 39.6706 38.3053 40.1459 38.4003 40.8115V44.044C38.3528 45.993 38.1155 47.7043 37.7832 49.2731V50.4615H46.2322V51.2221H47.7511V51.745H49.5549V52.5531H37.0238H24.4452V51.745H26.2489V51.2221H27.7678V50.4615H36.2168V49.2731C35.8846 47.7043 35.6472 45.993 35.5998 44.044V40.8115C35.6947 40.1459 35.9795 39.6706 36.4067 39.3378C35.4574 39.1477 35.1726 37.4839 36.4067 37.3413C36.4067 35.3447 36.4067 33.3482 36.4067 31.3516C35.9795 31.209 35.5998 30.8287 35.4574 30.4009C34.6979 30.1156 33.9384 29.9255 33.179 30.0681C31.8499 30.4484 30.2361 31.0188 29.1443 31.1614C28.3849 31.3516 26.9134 31.5417 25.6793 31.3041L29.9038 41.7622H31.5651C30.1411 43.8538 27.8628 44.8521 24.8249 44.8521C21.2175 44.757 19.5087 43.3785 18.322 41.7147H20.1732L24.5401 30.9713C23.923 30.6385 23.4959 30.1156 23.4959 29.3075C23.4959 28.4994 24.1604 27.7863 25.0148 27.7863C25.8217 27.7863 26.5337 28.4518 26.5337 29.3075C26.5337 29.5927 26.4862 29.8304 26.3438 30.0681C27.1033 30.2582 28.1476 30.1632 29.2393 29.8779C30.9006 29.4501 31.755 28.2142 33.5587 28.2142C34.1758 28.2142 34.8878 28.4518 35.6947 28.8797C35.8846 28.642 36.1219 28.4994 36.4067 28.4043C36.4067 28.2617 36.4067 28.0715 36.4067 27.9289C36.2168 27.7388 36.1219 27.406 36.1219 27.1208C36.1219 26.5504 36.1219 26.0274 36.1219 25.457C36.1694 25.0292 36.3592 24.7439 36.644 24.6013C36.644 23.8883 36.644 23.1752 36.644 22.4146L36.739 22.1294C36.4542 22.0343 36.2643 21.7491 36.2643 21.4164C36.2643 20.9885 36.5966 20.6558 37.0238 20.6558ZM52.9724 41.7147L49.2701 32.3499V41.7147H52.9724ZM44.9506 41.7147L48.653 32.3499V41.7147H44.9506ZM21.0276 41.7147L24.73 32.3499V41.7147H21.0276ZM29.0494 41.7147L25.347 32.3499V41.7147H29.0494Z" fill="url(#paint9_radial)"/>
<path fill-rule="evenodd" clip-rule="evenodd" d="M28.3849 75.561C29.7614 71.5679 25.0148 68.4304 25.1097 68.2878C25.2521 68.1927 22.2143 72.1383 28.3849 75.561Z" fill="url(#paint10_radial)"/>
<path fill-rule="evenodd" clip-rule="evenodd" d="M27.1033 75.5136C23.0212 78.1281 17.3253 73.0417 17.5151 72.9466C17.6101 72.8991 21.5498 71.4729 27.1033 75.5136Z" fill="url(#paint11_radial)"/>
<path fill-rule="evenodd" clip-rule="evenodd" d="M45.6151 75.561C44.2386 71.5679 48.9853 68.4304 48.8903 68.2878C48.7479 68.1927 51.7858 72.1383 45.6151 75.561Z" fill="url(#paint12_radial)"/>
<path fill-rule="evenodd" clip-rule="evenodd" d="M46.8967 75.5136C50.9788 78.1281 56.6748 73.0417 56.4849 72.9466C56.39 72.8991 52.4503 71.4729 46.8967 75.5136Z" fill="url(#paint13_radial)"/>
<path d="M4.74683 59.2561C7.21507 64.2475 12.2465 65.8637 14.9046 63.9147C14.9046 63.9147 14.9046 63.9147 14.9046 63.8672C14.9046 63.9147 10.3479 62.346 9.44599 61.5854C9.44599 61.633 13.8604 63.2492 14.9046 63.8672C11.8193 60.2544 7.7372 57.6874 4.74683 59.2561Z" fill="url(#paint14_linear)"/>
<path d="M2.32593 53.0287C4.27205 57.925 8.87628 59.7314 11.5344 58.0201C11.5344 58.0201 11.5344 58.0201 11.5344 57.9726C11.5344 58.0201 7.35736 56.2612 6.5979 55.5006C6.5979 55.5482 10.5851 57.3546 11.5344 57.9726C8.92375 54.3122 5.26884 51.6501 2.32593 53.0287Z" fill="url(#paint15_linear)"/>
<path d="M0.664551 46.4684C1.85121 51.2696 5.93331 53.4563 8.68636 52.1253C8.68636 52.1253 8.68636 52.1253 8.68636 52.0778C8.68636 52.1253 5.03145 50.0337 4.36692 49.2256C4.36692 49.2731 7.87943 51.3647 8.68636 52.0778C6.69277 48.3224 3.60746 45.4226 0.664551 46.4684Z" fill="url(#paint16_linear)"/>
<path d="M0.189941 40.3361C0.664605 45.0422 4.12965 47.5617 6.88269 46.6109C6.88269 46.6109 6.88269 46.6109 6.88269 46.5634C6.88269 46.6109 3.74992 44.1866 3.27525 43.3784C3.27525 43.426 6.26563 45.8028 6.88269 46.5634C5.6011 42.7604 3.08539 39.6705 0.189941 40.3361Z" fill="url(#paint17_linear)"/>
<path d="M0 34.4416C0 38.9576 2.99038 41.6197 5.60103 40.9066C5.60103 40.9066 5.60103 40.9066 5.60103 40.8591C5.55356 40.9066 2.89545 38.3396 2.51572 37.579C2.46825 37.6266 5.0789 40.0985 5.60103 40.8591C4.7941 37.1037 2.75305 33.9662 0 34.4416Z" fill="url(#paint18_linear)"/>
<path d="M0.806882 28.547C0.0948871 32.8728 2.4682 35.7251 4.98392 35.3923C4.93645 35.4398 2.8954 32.6827 2.65807 31.8746C2.6106 31.9221 4.60419 34.5842 4.98392 35.3923C4.79405 31.6844 3.37006 28.4519 0.806882 28.547Z" fill="url(#paint19_linear)"/>
<path d="M2.37343 22.9851C1.1393 27.0733 2.94302 30.0206 5.31634 29.9731C5.26887 30.0206 3.74995 27.1684 3.65502 26.3602C3.60755 26.4078 5.07901 29.1649 5.31634 29.9731C5.60114 26.3602 4.74674 23.0802 2.37343 22.9851Z" fill="url(#paint20_linear)"/>
<path d="M4.65174 17.7561C2.94295 21.5591 4.08215 24.6014 6.2656 24.7916C6.21813 24.8391 5.2688 21.8918 5.31627 21.1312C5.2688 21.1788 6.21813 23.9835 6.2656 24.7916C7.11999 21.3689 6.83519 18.0889 4.65174 17.7561Z" fill="url(#paint21_linear)"/>
<path d="M7.49955 12.7646C5.36357 16.2824 5.93316 19.3248 7.87928 19.7526C7.83182 19.7526 7.40462 16.8528 7.54702 16.0922C7.49955 16.0922 7.92675 18.9445 7.87928 19.7526C9.20834 16.5676 9.44567 13.3351 7.49955 12.7646Z" fill="url(#paint22_linear)"/>
<path d="M16.7554 54.3596C18.3693 58.0675 17.8946 62.1082 15.0467 63.867C15.0467 63.867 15.0467 63.867 14.9992 63.867C14.9517 63.8195 15.4264 59.5412 15.4738 58.638C15.4264 58.5904 14.6195 62.6786 14.9992 63.867C12.2936 59.6838 13.4803 55.1677 16.7554 54.3596Z" fill="url(#paint23_linear)"/>
<path d="M14.05 48.9404C15.3316 52.6008 14.5246 56.4513 11.6767 57.9725C11.6767 57.9725 11.6767 57.9725 11.6292 57.9725C11.5817 57.9249 12.3886 53.8367 12.531 52.9811C12.4836 52.9335 11.3919 56.8316 11.6292 57.9725C9.44573 53.8367 10.8697 49.5584 14.05 48.9404Z" fill="url(#paint24_linear)"/>
<path d="M12.1988 43.6638C12.9582 47.3242 11.6766 50.8895 8.82865 52.0303C8.82865 52.0303 8.82865 52.0303 8.78119 52.0303C8.73372 51.9828 10.0153 48.1798 10.2526 47.3717C10.2052 47.3242 8.68625 50.937 8.78119 52.0303C7.26226 47.8946 9.11345 43.9966 12.1988 43.6638Z" fill="url(#paint25_linear)"/>
<path d="M11.2969 38.5773C11.4393 42.1901 9.77803 45.4227 6.93005 46.1832C6.88258 46.1357 8.6863 42.6655 9.01857 41.9525C8.9711 41.9049 7.02498 45.1374 6.93005 46.1832C6.07565 42 8.4015 38.4822 11.2969 38.5773Z" fill="url(#paint26_linear)"/>
<path d="M10.49 33.8238C10.3476 37.3416 8.49644 40.3364 5.74339 40.8593C5.69592 40.8118 7.68951 37.6268 8.02177 36.9137C7.97431 36.8662 5.88579 39.861 5.74339 40.8593C5.36366 36.8187 7.83191 33.5862 10.49 33.8238Z" fill="url(#paint27_linear)"/>
<path d="M10.5375 29.2125C9.87294 32.5877 7.68949 35.2497 5.07884 35.3924C5.03137 35.3448 7.35723 32.5401 7.78442 31.8746C7.78442 31.8271 5.36364 34.4416 5.07884 35.3924C5.36364 31.5419 8.11669 28.6896 10.5375 29.2125Z" fill="url(#paint28_linear)"/>
<path d="M11.2495 24.5063C10.1578 27.7389 7.78445 30.0682 5.41113 29.9731C5.41113 29.9256 7.87938 27.4536 8.40151 26.8832C8.40151 26.8357 5.83833 29.1174 5.41113 29.9731C6.17059 26.2652 9.11351 23.7457 11.2495 24.5063Z" fill="url(#paint29_linear)"/>
<path d="M12.5786 20.1329C11.0597 23.1752 8.59141 25.1718 6.40796 24.7915C6.40796 24.744 9.06607 22.6048 9.5882 22.0819C9.5882 22.0343 6.93009 23.9834 6.40796 24.7915C7.64208 21.3688 10.6799 19.1821 12.5786 20.1329Z" fill="url(#paint30_linear)"/>
<path d="M14.3825 15.8548C12.5313 18.707 9.92063 20.4183 8.02197 19.8003C8.02197 19.7528 10.775 17.9464 11.3446 17.5186C11.3446 17.471 8.59157 19.0873 8.02197 19.8003C9.68329 16.5678 12.8161 14.7614 14.3825 15.8548Z" fill="url(#paint31_linear)"/>
<path d="M14.7621 10.1026C13.9077 13.3827 12.0091 15.807 9.96802 15.8546C9.96802 15.8546 11.9616 13.24 12.3888 12.6696C12.3888 12.6696 10.3003 15.0465 9.96802 15.8546C10.4901 12.2893 12.8635 9.57969 14.7621 10.1026Z" fill="url(#paint32_linear)"/>
<path d="M69.2535 59.2561C66.7852 64.2475 61.7538 65.8637 59.0957 63.9147C59.0957 63.9147 59.0957 63.9147 59.0957 63.8672C59.0957 63.9147 63.6525 62.346 64.5543 61.5854C64.5543 61.633 60.14 63.2492 59.0957 63.8672C62.181 60.2544 66.2631 57.6874 69.2535 59.2561Z" fill="url(#paint33_linear)"/>
<path d="M71.674 53.0287C69.7279 57.925 65.1237 59.7314 62.4656 58.0201C62.4656 58.0201 62.4656 58.0201 62.4656 57.9726C62.4656 58.0201 66.6426 56.2612 67.4021 55.5006C67.4021 55.5482 63.4149 57.3546 62.4656 57.9726C65.0762 54.3122 68.7311 51.6501 71.674 53.0287Z" fill="url(#paint34_linear)"/>
<path d="M73.3355 46.4684C72.1489 51.2696 68.0668 53.4563 65.3137 52.1253C65.3137 52.1253 65.3137 52.1253 65.3137 52.0778C65.3137 52.1253 68.9686 50.0337 69.6332 49.2256C69.6332 49.2731 66.1206 51.3647 65.3137 52.0778C67.2598 48.3224 70.3926 45.4226 73.3355 46.4684Z" fill="url(#paint35_linear)"/>
<path d="M73.8102 40.3361C73.3355 45.0422 69.8705 47.5617 67.1174 46.6109C67.1174 46.6109 67.1174 46.6109 67.1174 46.5634C67.1174 46.6109 70.2502 44.1866 70.7249 43.3784C70.7249 43.426 67.7345 45.8028 67.1174 46.5634C68.399 42.7604 70.9147 39.6705 73.8102 40.3361Z" fill="url(#paint36_linear)"/>
<path d="M73.9999 34.4416C73.9999 38.9576 71.0096 41.6197 68.3989 40.9066C68.3989 40.9066 68.3989 40.9066 68.3989 40.8591C68.4464 40.9066 71.1045 38.3396 71.4842 37.579C71.5317 37.6266 68.9211 40.0985 68.3989 40.8591C69.2059 37.1037 71.2469 33.9662 73.9999 34.4416Z" fill="url(#paint37_linear)"/>
<path d="M73.1932 28.547C73.9051 32.8728 71.5318 35.7251 69.0161 35.3923C69.0636 35.4398 71.1046 32.6827 71.342 31.8746C71.3894 31.9221 69.3958 34.5842 69.0161 35.3923C69.206 31.6844 70.63 28.4519 73.1932 28.547Z" fill="url(#paint38_linear)"/>
<path d="M71.6266 22.9851C72.8607 27.0733 71.057 30.0206 68.6837 29.9731C68.7312 30.0206 70.2501 27.1684 70.345 26.3602C70.3925 26.4078 68.921 29.1649 68.6837 29.9731C68.3514 26.3602 69.2533 23.0802 71.6266 22.9851Z" fill="url(#paint39_linear)"/>
<path d="M69.3483 17.7561C71.0571 21.5591 69.9179 24.6014 67.7344 24.7916C67.7819 24.8391 68.7312 21.8918 68.6838 21.1312C68.7312 21.1788 67.7819 23.9835 67.7344 24.7916C66.88 21.3689 67.1648 18.0889 69.3483 17.7561Z" fill="url(#paint40_linear)"/>
<path d="M66.5002 12.7646C68.6362 16.2824 68.0666 19.3248 66.1205 19.7526C66.1679 19.7526 66.5951 16.8528 66.4527 16.0922C66.5002 16.0922 66.073 18.9445 66.1205 19.7526C64.7914 16.5676 64.5541 13.3351 66.5002 12.7646Z" fill="url(#paint41_linear)"/>
<path d="M57.2442 54.3596C55.6303 58.0675 56.105 62.1082 58.953 63.867C58.953 63.867 58.953 63.867 59.0005 63.867C59.0479 63.8195 58.5733 59.5412 58.5258 58.638C58.5733 58.5904 59.3802 62.6786 59.0005 63.867C61.706 59.6838 60.5194 55.1677 57.2442 54.3596Z" fill="url(#paint42_linear)"/>
<path d="M59.9498 48.9404C58.6683 52.6008 59.4752 56.4513 62.3232 57.9725C62.3232 57.9725 62.3232 57.9725 62.3706 57.9725C62.4181 57.9249 61.6112 53.8367 61.4688 52.9811C61.5162 52.9335 62.6079 56.8316 62.3706 57.9725C64.5541 53.8367 63.0826 49.5584 59.9498 48.9404Z" fill="url(#paint43_linear)"/>
<path d="M61.801 43.6638C61.0416 47.3242 62.3232 50.8895 65.1712 52.0303C65.1712 52.0303 65.1711 52.0303 65.2186 52.0303C65.2661 51.9828 63.9845 48.1798 63.7472 47.3717C63.7946 47.3242 65.3135 50.937 65.2186 52.0303C66.7375 47.8946 64.8389 43.9966 61.801 43.6638Z" fill="url(#paint44_linear)"/>
<path d="M62.703 38.5773C62.5607 42.1901 64.222 45.4227 67.0699 46.1832C67.1174 46.1357 65.3137 42.6655 64.9814 41.9525C65.0289 41.9049 66.975 45.1374 67.0699 46.1832C67.8769 42 65.5985 38.4822 62.703 38.5773Z" fill="url(#paint45_linear)"/>
<path d="M63.5098 33.8238C63.6522 37.3416 65.5034 40.3364 68.2564 40.8593C68.3039 40.8118 66.3103 37.6268 65.978 36.9137C66.0255 36.8662 68.114 39.861 68.2564 40.8593C68.6361 36.8187 66.1679 33.5862 63.5098 33.8238Z" fill="url(#paint46_linear)"/>
<path d="M63.4626 29.2125C64.1272 32.5877 66.3106 35.2497 68.9213 35.3924C68.9687 35.3448 66.6429 32.5401 66.2157 31.8746C66.2157 31.8271 68.6365 34.4416 68.9213 35.3924C68.6365 31.5419 65.8834 28.6896 63.4626 29.2125Z" fill="url(#paint47_linear)"/>
<path d="M62.7505 24.5063C63.8422 27.7389 66.2155 30.0682 68.5888 29.9731C68.5888 29.9256 66.1206 27.4536 65.5985 26.8832C65.5985 26.8357 68.1617 29.1174 68.5888 29.9731C67.8294 26.2652 64.8865 23.7457 62.7505 24.5063Z" fill="url(#paint48_linear)"/>
<path d="M61.4214 20.1329C62.9403 23.1752 65.4086 25.1718 67.592 24.7915C67.592 24.744 64.9339 22.6048 64.4118 22.0819C64.4118 22.0343 67.0699 23.9834 67.592 24.7915C66.3579 21.3688 63.32 19.1821 61.4214 20.1329Z" fill="url(#paint49_linear)"/>
<path d="M59.6177 15.8548C61.4689 18.707 64.0795 20.4183 65.9782 19.8003C65.9782 19.7528 63.2251 17.9464 62.6555 17.5186C62.6555 17.471 65.4086 19.0873 65.9782 19.8003C64.3168 16.5678 61.1841 14.7614 59.6177 15.8548Z" fill="url(#paint50_linear)"/>
<path d="M59.238 10.1026C60.0924 13.3827 61.9911 15.807 64.0321 15.8546C64.0321 15.8546 62.0385 13.24 61.6114 12.6696C61.6114 12.6696 63.6999 15.0465 64.0321 15.8546C63.51 12.2893 61.0892 9.57969 59.238 10.1026Z" fill="url(#paint51_linear)"/>
<path fill-rule="evenodd" clip-rule="evenodd" d="M17.9422 66.434C14.0974 66.2914 12.4836 65.9586 11.9614 65.0554C12.7209 71.8532 14.1449 76.2742 16.6131 77.3675C30.6632 76.1315 43.3367 76.1315 57.3867 77.3675C59.855 76.2742 61.2789 71.8057 62.0384 65.0554C61.5163 65.9586 59.9024 66.2438 56.0576 66.434C43.3841 65.103 30.6157 65.103 17.9422 66.434Z" fill="url(#paint52_radial)"/>
<path d="M21.2173 73.1367C21.2173 73.1367 21.1698 73.1367 21.1224 73.1367C21.0749 73.1367 21.0749 73.1367 21.0274 73.1367C20.98 73.1367 20.9325 73.1367 20.9325 73.1367H20.4578H20.3154H20.173C20.1256 73.1367 20.1256 73.1367 20.0781 73.0892L20.0306 73.0417C20.0306 72.9941 20.0306 72.9941 20.0781 72.9941L20.1256 72.9466C20.1256 72.9466 20.1256 72.899 20.1256 72.8515C20.1256 72.6138 20.1256 72.2335 20.0781 71.8532C20.0306 71.4254 19.9832 71.1402 19.9357 70.95C19.9357 70.9025 19.8882 70.855 19.8882 70.8074C19.8408 70.7599 19.7933 70.7123 19.7458 70.7123C19.6509 70.7123 19.6034 70.7599 19.6034 70.855C19.6034 70.9025 19.6034 70.9025 19.6034 70.9025V70.95C19.6034 70.95 19.6034 70.9976 19.6034 71.0451C19.6034 71.0926 19.6034 71.1402 19.6034 71.1402V72.804C19.6034 72.8515 19.6034 72.899 19.6034 72.899C19.6509 72.899 19.6509 72.9466 19.6509 72.9466C19.6984 72.9941 19.6984 72.9941 19.6984 73.0417C19.6984 73.0892 19.6509 73.1367 19.6034 73.1367C19.556 73.1367 19.5085 73.1367 19.461 73.1367C19.4136 73.1367 19.4136 73.1367 19.3661 73.1367H18.844C18.7965 73.1367 18.7491 73.1367 18.7016 73.1367C18.6541 73.1367 18.6067 73.1367 18.6067 73.1367C18.5592 73.1367 18.5117 73.0892 18.5117 73.0417C18.5117 72.9941 18.5117 72.9941 18.5592 72.9466C18.5592 72.9466 18.6067 72.899 18.6541 72.899C18.6541 72.899 18.6541 72.8515 18.7016 72.804C18.7016 72.7564 18.7016 72.7089 18.7016 72.6614C18.7016 72.6138 18.7016 72.4237 18.7016 72.0909C18.7016 71.7582 18.7016 71.4729 18.7016 71.1877V70.5222V70.237C18.7016 70.1419 18.7016 70.0468 18.7016 69.9517C18.7016 69.8567 18.7016 69.7616 18.7016 69.6665C18.7016 69.5715 18.7016 69.5239 18.6541 69.5239C18.6067 69.4764 18.6067 69.4764 18.6067 69.4764C18.6067 69.4288 18.6541 69.4288 18.7016 69.4288H18.7491C18.7965 69.4288 18.7965 69.4288 18.844 69.4288H19.461H19.556H19.6509C19.6984 69.4288 19.6984 69.4288 19.7458 69.4288L19.7933 69.4764C19.7933 69.5239 19.7933 69.5239 19.7458 69.5715L19.6984 69.619V69.6665C19.6984 69.7141 19.6984 69.7616 19.6984 69.8091V70.2845C19.6984 70.3321 19.6984 70.332 19.6984 70.3796C19.6984 70.4271 19.6984 70.4271 19.6984 70.4747V70.5222C19.6984 70.5697 19.6984 70.5697 19.7458 70.5697C19.7933 70.5697 19.7933 70.6173 19.8408 70.6173C19.8882 70.6173 19.8882 70.6173 19.9357 70.6173C19.9832 70.6173 19.9832 70.5697 20.0306 70.5697C20.1256 70.5222 20.2205 70.4271 20.268 70.332C20.3154 70.237 20.3629 70.1419 20.4104 69.9517C20.4578 69.8091 20.5053 69.6665 20.5528 69.5715C20.6477 69.4288 20.7901 69.3338 20.9325 69.3338C21.0274 69.3338 21.0749 69.3813 21.1698 69.4288C21.2173 69.4764 21.2648 69.5715 21.2648 69.6665C21.2648 69.7616 21.2173 69.8091 21.1698 69.8567C21.1224 69.9042 21.0274 69.9517 20.98 69.9517C20.9325 69.9517 20.9325 69.9518 20.885 69.9042C20.8376 69.9042 20.7901 69.8567 20.7901 69.8567C20.7426 69.8567 20.6952 69.8567 20.6952 69.9042C20.6477 69.9518 20.6477 69.9993 20.6477 70.0944C20.6477 70.1419 20.6477 70.1894 20.6952 70.237C20.6952 70.2845 20.7426 70.3796 20.7901 70.4271C20.9325 70.7123 21.0274 70.9025 21.0749 71.0451C21.1698 71.3303 21.2173 71.7106 21.2173 72.0909C21.2173 72.2335 21.2173 72.3761 21.2173 72.4712C21.2173 72.5663 21.2173 72.7089 21.2648 72.804C21.2648 72.8515 21.3122 72.899 21.3122 72.899L21.3597 72.9466L21.4072 72.9941C21.2173 73.0892 21.2173 73.1367 21.2173 73.1367ZM23.4482 69.4764C23.4008 69.5239 23.4008 69.5715 23.3533 69.5715C23.3058 69.619 23.3058 69.7141 23.3058 69.8091V71.9008C23.3058 72.3761 23.2584 72.6614 23.2109 72.8515C23.116 73.0892 22.8312 73.2318 22.404 73.2318C22.0242 73.2318 21.7869 73.1367 21.6445 72.899C21.5496 72.7564 21.5021 72.5187 21.5021 72.2335V69.7141C21.5021 69.6665 21.5021 69.6665 21.5021 69.619C21.5021 69.5715 21.5021 69.5239 21.4546 69.5239C21.4546 69.5239 21.4546 69.5239 21.4072 69.4764C21.3597 69.4764 21.3597 69.4288 21.3597 69.3813C21.3597 69.3338 21.4072 69.2862 21.4546 69.2862C21.5021 69.2862 21.5496 69.2862 21.5496 69.2862C21.597 69.2862 21.6445 69.2862 21.692 69.2862H22.0717C22.0717 69.2862 22.1192 69.2862 22.1666 69.2862C22.2141 69.2862 22.2616 69.2862 22.2616 69.2862H22.3565C22.4514 69.2862 22.4514 69.2862 22.4514 69.3338C22.4514 69.3813 22.4514 69.3813 22.404 69.4288L22.3565 69.4764C22.3565 69.4764 22.309 69.5239 22.309 69.5715C22.309 69.5715 22.309 69.619 22.309 69.7141C22.309 69.7616 22.309 69.8091 22.309 69.8567V71.4729C22.309 71.7106 22.309 71.8532 22.309 71.9483C22.309 72.0434 22.309 72.0909 22.309 72.0909C22.309 72.2811 22.309 72.3761 22.3565 72.4712C22.404 72.6138 22.4989 72.6614 22.6413 72.6614C22.7837 72.6614 22.8786 72.5663 22.9261 72.3761C22.9261 72.2811 22.9736 72.0909 22.9736 71.8057V70.0468C22.9736 69.9993 22.9736 69.9518 22.9736 69.9042C22.9736 69.8567 22.9736 69.8091 22.9736 69.7616C22.9736 69.7141 22.9736 69.6665 22.9736 69.619C22.9736 69.5715 22.9261 69.5715 22.9261 69.5239C22.9261 69.5239 22.8786 69.4764 22.8312 69.4764C22.7837 69.4288 22.7837 69.4288 22.7837 69.3813C22.7837 69.3338 22.8312 69.3338 22.8786 69.3338C22.8786 69.3338 22.9261 69.3338 22.9736 69.3338C23.021 69.3338 23.021 69.3338 23.0685 69.3338H23.2584C23.3533 69.3338 23.4008 69.3338 23.4482 69.3338C23.4957 69.3338 23.5431 69.3338 23.5431 69.3813C23.4957 69.4288 23.4482 69.4764 23.4482 69.4764ZM25.5842 69.9993C25.5842 70.0944 25.5842 70.1894 25.5367 70.237C25.4893 70.2845 25.4893 70.2845 25.4418 70.2845C25.3469 70.2845 25.2994 70.237 25.2994 70.1894C25.2994 70.0944 25.2519 69.9993 25.2519 69.9042C25.2045 69.7616 25.157 69.619 25.0621 69.5715C25.0146 69.4764 24.9197 69.4764 24.8722 69.4764C24.8247 69.4764 24.8247 69.4764 24.7773 69.5239L24.7298 69.5715C24.7298 69.5715 24.7298 69.619 24.7298 69.6665C24.7298 69.7616 24.7298 69.8091 24.7298 69.8091C24.7298 69.8091 24.7298 69.8567 24.7298 69.9042V71.6155V72.3286V72.6138V72.7564C24.7298 72.8515 24.7298 72.9466 24.7773 72.9941C24.8247 73.0417 24.8722 73.0417 24.9671 73.0417C25.0146 73.0417 25.0621 72.9941 25.1095 72.9466C25.157 72.899 25.157 72.8515 25.157 72.7564V72.7089C25.157 72.6614 25.157 72.6614 25.157 72.6614C25.157 72.6138 25.157 72.5663 25.2045 72.4712C25.2519 72.4237 25.2994 72.3761 25.3469 72.3761C25.3943 72.3761 25.4418 72.3761 25.4893 72.4237C25.5367 72.4712 25.5367 72.5187 25.5367 72.5663C25.5367 72.7089 25.4893 72.804 25.3469 72.9466C25.2045 73.0892 25.0621 73.1367 24.8722 73.1367C24.5874 73.1367 24.3026 72.9466 24.1127 72.6138C23.8754 72.2335 23.733 71.7106 23.733 71.0451C23.733 70.4747 23.8279 69.9993 24.0653 69.6665C24.2551 69.3338 24.445 69.1912 24.7298 69.1912C24.7773 69.1912 24.8722 69.1912 24.9197 69.2387C24.9671 69.2862 25.0146 69.2862 25.0621 69.2862C25.0621 69.2862 25.1095 69.2862 25.157 69.2862C25.2045 69.2862 25.2519 69.2862 25.2519 69.2387C25.2994 69.1912 25.2994 69.1912 25.3469 69.1912C25.4418 69.1912 25.4893 69.1912 25.4893 69.2387C25.4893 69.2862 25.4893 69.3813 25.5367 69.4288C25.5842 69.5239 25.5842 69.619 25.5842 69.7141C25.5842 69.8091 25.5842 69.9042 25.5842 69.9993ZM28.1949 73.0892C28.1949 73.1367 28.1474 73.1843 28.0999 73.1843C28.0999 73.1843 28.0525 73.1843 28.005 73.1843C27.9575 73.1843 27.9101 73.1843 27.8626 73.1843H27.4354C27.3879 73.1843 27.3879 73.1843 27.3405 73.1843C27.293 73.1843 27.2455 73.1843 27.1981 73.1843C27.1506 73.1843 27.1031 73.1843 27.1031 73.1367C27.1031 73.0892 27.1031 73.0892 27.1506 73.0417C27.1506 73.0417 27.1981 72.9941 27.1981 72.9466C27.1981 72.899 27.1981 72.899 27.1981 72.899V71.568C27.1981 71.4254 27.1981 71.2828 27.1506 71.2353C27.1031 71.1877 27.0557 71.1402 27.0082 71.1402C26.9133 71.1402 26.8658 71.1402 26.8658 71.1877C26.8658 71.2353 26.8183 71.2828 26.8183 71.3303V71.4254V71.6155V72.8515C26.8183 72.899 26.8183 72.9466 26.8658 72.9941L26.9133 73.0417C26.9133 73.0417 26.9607 73.0892 26.9607 73.1367C26.9607 73.1843 26.9133 73.2318 26.8658 73.2318C26.8658 73.2318 26.8183 73.2318 26.7709 73.2318C26.7234 73.2318 26.6759 73.2318 26.6759 73.2318H26.2487C26.2013 73.2318 26.1538 73.2318 26.1063 73.2318C26.0589 73.2318 26.0114 73.2318 25.9639 73.2318C25.9165 73.2318 25.869 73.2318 25.869 73.1843C25.869 73.1367 25.869 73.0892 25.9165 73.0892C25.9639 73.0892 25.9639 72.9941 25.9639 72.899C25.9639 72.6614 25.9639 72.4237 25.9639 72.1385C25.9639 71.8532 25.9639 71.6631 25.9639 71.6155C25.9639 71.4254 25.9639 71.1402 25.9639 70.7599C25.9639 70.3796 25.9639 70.0468 25.9639 69.7141C25.9639 69.6665 25.9639 69.619 25.9165 69.5715C25.9165 69.5715 25.869 69.5715 25.869 69.5239V69.4764C25.869 69.4288 25.9165 69.4288 25.9639 69.4288C26.0114 69.4288 26.0589 69.4288 26.1063 69.4288H26.6285C26.7234 69.4288 26.7709 69.4288 26.8183 69.4288C26.8658 69.4288 26.8658 69.4288 26.9133 69.4288C26.9607 69.4288 27.0082 69.4288 27.0082 69.4764C27.0082 69.4764 27.0082 69.5239 26.9607 69.5239L26.9133 69.5715C26.9133 69.5715 26.9133 69.619 26.8658 69.619C26.8658 69.619 26.8658 69.6665 26.8658 69.7616V70.4747C26.8658 70.5697 26.8658 70.6648 26.8658 70.7599C26.8658 70.8074 26.8658 70.855 26.9133 70.9025C26.9133 70.95 26.9607 70.95 26.9607 70.95C27.0082 70.95 27.0082 70.95 27.0557 70.95C27.1031 70.95 27.1506 70.95 27.1981 70.9025C27.2455 70.855 27.2455 70.8074 27.2455 70.7599V70.4747V69.7141C27.2455 69.619 27.2455 69.5715 27.2455 69.5715C27.2455 69.5239 27.2455 69.5239 27.2455 69.5239L27.1981 69.4764L27.1506 69.4288C27.1506 69.3813 27.1981 69.3813 27.2455 69.3813C27.293 69.3813 27.293 69.3813 27.3405 69.3813C27.3879 69.3813 27.3879 69.3813 27.4354 69.3813H28.005C28.0525 69.3813 28.0525 69.3813 28.0999 69.3813C28.1474 69.3813 28.1474 69.3813 28.1474 69.3813C28.1948 69.3813 28.2423 69.3813 28.2423 69.4288C28.2423 69.4764 28.2423 69.4764 28.1949 69.5239C28.1474 69.5239 28.1474 69.5715 28.1474 69.619C28.1474 69.6665 28.1474 69.9042 28.1474 70.2845C28.1474 70.6648 28.1474 71.0451 28.1474 71.3779C28.1474 71.8532 28.1474 72.186 28.1474 72.3761C28.1474 72.5663 28.1474 72.7089 28.1474 72.8515C28.1474 72.9466 28.1474 72.9941 28.1949 72.9941C28.1474 72.9941 28.1949 73.0417 28.1949 73.0892ZM37.8305 73.0892C37.8305 73.1367 37.8305 73.1367 37.783 73.1367C37.783 73.1367 37.7356 73.1843 37.6881 73.1843C37.6407 73.1843 37.6406 73.1843 37.5932 73.1843H37.5457C37.4983 73.1843 37.4983 73.1843 37.4508 73.1843C37.4033 73.1843 37.4033 73.1843 37.3559 73.1843H37.2609H36.9761H36.7863C36.7388 73.1843 36.7388 73.1843 36.6913 73.1843C36.6913 73.1843 36.6439 73.1843 36.5964 73.1843C36.5015 73.1843 36.454 73.1367 36.454 73.0892C36.454 73.0417 36.5015 72.9941 36.5489 72.9941C36.5964 72.9941 36.6439 72.9466 36.6439 72.9466C36.6913 72.899 36.6913 72.899 36.6913 72.8515V72.7564C36.6913 72.6138 36.5964 72.5187 36.5015 72.4712C36.4065 72.4237 36.3591 72.4237 36.2641 72.4237C36.1217 72.4237 36.0268 72.4712 35.9319 72.5663C35.8844 72.6138 35.8844 72.7089 35.8844 72.804C35.8844 72.899 35.8844 72.9466 35.9319 72.9941C35.9319 73.0417 35.9793 73.0417 36.0268 73.0417C36.0743 73.0417 36.0743 73.0892 36.0743 73.1367C36.0743 73.1843 36.0743 73.1843 36.0743 73.1843C36.0743 73.1843 36.0268 73.2318 35.9793 73.2318H35.8369H35.6471H35.4097H35.3623C35.3148 73.2318 35.2673 73.1843 35.2673 73.1367C35.2673 73.0892 35.3148 73.0417 35.3623 73.0417C35.4097 73.0417 35.4572 72.9941 35.4572 72.9466C35.4572 72.899 35.5047 72.8515 35.5047 72.7564C35.5047 72.6614 35.5521 72.5663 35.5521 72.4712C35.5996 71.9958 35.6945 71.6155 35.742 71.2828C35.7895 71.0451 35.8369 70.8074 35.9319 70.5697C36.0268 70.2845 36.0268 70.1419 36.0268 70.1419C36.0268 70.0468 36.0743 69.9518 36.0743 69.9042C36.0743 69.8567 36.0743 69.8091 36.0268 69.7616C36.0268 69.7141 35.9793 69.7141 35.9319 69.6665C35.8844 69.619 35.8369 69.619 35.8369 69.5239C35.8369 69.4764 35.8369 69.4764 35.8844 69.4288C35.9319 69.4288 35.9319 69.3813 35.9793 69.3813C36.0268 69.3813 36.0743 69.3813 36.1217 69.3813C36.2167 69.3813 36.2641 69.3813 36.2641 69.3813H36.4065C36.4065 69.3813 36.5015 69.3813 36.5964 69.3338C36.6913 69.3338 36.7863 69.3338 36.8337 69.3338C36.8812 69.3338 36.9287 69.3338 36.9761 69.3813C37.0236 69.3813 37.0236 69.4288 37.0711 69.5239C37.1185 69.6665 37.2135 70.0468 37.3084 70.6173C37.4033 71.1877 37.4983 71.8057 37.5457 72.4712C37.5457 72.6614 37.5932 72.7564 37.5932 72.804C37.5932 72.899 37.6407 72.9941 37.6881 73.0417L37.7356 73.0892C37.8305 72.9941 37.8305 73.0417 37.8305 73.0892ZM36.5964 71.9483C36.5964 71.8532 36.5964 71.8057 36.5964 71.7582C36.5964 71.7106 36.5489 71.5205 36.5015 71.2828C36.5015 71.1877 36.454 71.1402 36.454 71.0926C36.454 71.0451 36.454 70.95 36.454 70.9025V70.8074C36.454 70.7599 36.454 70.7123 36.454 70.7123C36.454 70.6648 36.4065 70.6648 36.3591 70.6648C36.2641 70.6648 36.1692 70.855 36.0743 71.2353C36.0268 71.5205 35.9793 71.8057 35.9793 71.9483C35.9793 72.0909 36.0268 72.1385 36.0743 72.186C36.1217 72.2335 36.1692 72.2335 36.2641 72.2335H36.3591C36.454 72.2335 36.5489 72.186 36.5489 72.1385C36.5964 72.0909 36.5964 71.9958 36.5964 71.9483ZM40.4886 71.1877C40.4886 71.4729 40.4886 71.7582 40.4412 71.9483C40.3937 72.2811 40.2513 72.5188 40.0614 72.7564C39.919 72.9466 39.7766 73.0417 39.6342 73.1367C39.4918 73.1843 39.3494 73.2318 39.1596 73.2318H38.9697C38.9222 73.2318 38.8748 73.2318 38.8273 73.2318C38.7798 73.2318 38.7798 73.2318 38.7324 73.2318H38.4001C38.3526 73.2318 38.3052 73.2318 38.2577 73.2318C38.2102 73.2318 38.1628 73.2318 38.1628 73.2318C38.1153 73.2318 38.1153 73.2318 38.0678 73.1843C38.0204 73.1843 38.0204 73.1367 38.0204 73.1367C38.0204 73.1367 38.0204 73.0892 38.0678 73.0892C38.0678 73.0892 38.0678 73.0892 38.1153 73.0417C38.1628 73.0417 38.1628 72.9941 38.1628 72.9466C38.1628 72.899 38.1628 72.899 38.2102 72.8515C38.2102 72.804 38.2102 72.804 38.2102 72.7564C38.2102 72.7089 38.2102 72.6138 38.2102 72.5188C38.2102 72.4237 38.2102 72.3286 38.2102 72.3286V69.7616C38.2102 69.6665 38.2102 69.619 38.2102 69.619C38.2102 69.5715 38.2102 69.5715 38.1628 69.5239C38.1153 69.5239 38.1153 69.4764 38.1153 69.4288C38.1153 69.3813 38.1153 69.3813 38.1628 69.3813C38.1628 69.3813 38.2102 69.3813 38.2577 69.3813C38.3052 69.3813 38.3526 69.3813 38.4001 69.3813C38.4476 69.3813 38.4476 69.3813 38.495 69.3813H38.9222C38.9697 69.3813 39.0172 69.3813 39.0646 69.3813C39.207 69.3813 39.302 69.3813 39.3494 69.3813C39.4444 69.3813 39.4918 69.3813 39.5868 69.4288C39.6817 69.4288 39.7292 69.4764 39.8241 69.5239C40.1089 69.6665 40.3462 69.9518 40.4412 70.332C40.4412 70.5222 40.4886 70.8074 40.4886 71.1877ZM39.4444 71.8057V70.4747C39.4444 70.1894 39.4444 70.0468 39.4444 69.9517C39.4444 69.8567 39.4444 69.7616 39.3969 69.7141C39.3969 69.6665 39.3494 69.5715 39.302 69.5715C39.2545 69.5239 39.207 69.5239 39.1596 69.5239C39.1121 69.5239 39.0646 69.5239 39.0646 69.5715C39.0172 69.619 39.0172 69.6665 39.0172 69.7141C39.0172 69.7616 39.0172 69.8091 39.0172 69.8091C39.0172 69.8567 39.0172 69.8567 39.0172 69.8567C39.0172 69.9042 39.0646 69.9993 39.0646 70.0944V71.9483V72.5188C39.0646 72.6138 39.0646 72.6614 39.0646 72.7089C39.0646 72.7564 39.0646 72.804 39.0646 72.804C39.0646 72.899 39.0646 72.9466 39.1121 72.9466C39.1596 72.9466 39.1596 72.9941 39.207 72.9941C39.302 72.9941 39.3494 72.9466 39.3969 72.8515C39.3969 72.804 39.4444 72.7564 39.4444 72.6614C39.4444 72.5663 39.4444 72.4712 39.4918 72.3761C39.4918 72.2811 39.4918 72.1385 39.4918 71.9958L39.4444 71.8057ZM43.1942 71.2353C43.1942 71.6631 43.1467 71.9958 43.0993 72.2811C43.0043 72.6138 42.8619 72.8515 42.6246 73.0417C42.4348 73.1843 42.2449 73.2318 42.055 73.2318C41.8652 73.2318 41.7228 73.1843 41.5804 73.0892C41.343 72.9466 41.2006 72.7564 41.0582 72.5188C40.9158 72.186 40.8209 71.7582 40.8209 71.1877C40.8209 70.6173 40.9158 70.1894 41.1532 69.8567C41.343 69.5239 41.6278 69.3338 42.0076 69.3338C42.15 69.3338 42.2924 69.3813 42.4348 69.4288C42.5772 69.4764 42.6721 69.5715 42.8145 69.6665C43.0043 69.8567 43.0993 70.1419 43.1942 70.4747C43.1467 70.7123 43.1942 70.95 43.1942 71.2353ZM42.2449 72.899C42.2449 72.8515 42.2449 72.804 42.1974 72.7564C42.1974 72.7089 42.15 72.6614 42.15 72.6614C42.15 72.6138 42.1025 72.4712 42.1025 72.2811V72.0434V71.2353V69.9517C42.1025 69.7616 42.1025 69.6665 42.055 69.5715C42.0076 69.5239 41.9601 69.4764 41.8652 69.4764C41.8177 69.4764 41.7702 69.4764 41.7228 69.5239C41.6753 69.5715 41.6753 69.619 41.6753 69.619C41.6753 69.6665 41.7228 69.7141 41.7228 69.7616C41.7228 69.8091 41.7228 69.8091 41.7228 69.8567C41.7228 69.9042 41.7228 69.9993 41.7228 70.0944C41.7228 70.237 41.7228 70.4271 41.7228 70.5697C41.7228 70.7123 41.7228 70.9025 41.7228 71.0451V72.5663C41.7228 72.7089 41.7702 72.804 41.8177 72.899C41.8652 72.9941 41.9601 73.0417 42.055 73.0417C42.1025 73.0417 42.15 73.0417 42.1974 72.9941C42.2449 72.9466 42.2449 72.9466 42.2449 72.899ZM45.3302 72.4237C45.3302 72.4712 45.3302 72.4712 45.3302 72.5188C45.3302 72.5663 45.3302 72.6138 45.2827 72.6614C45.2827 72.7089 45.2353 72.804 45.2353 72.899C45.2353 72.9941 45.2353 73.0892 45.2353 73.1843C45.2353 73.2318 45.2353 73.2318 45.2353 73.2318C45.2353 73.2318 45.1878 73.2793 45.1403 73.2793C45.0929 73.2793 45.0454 73.2793 44.9979 73.2318C44.9505 73.2318 44.9505 73.1843 44.903 73.1843C44.8555 73.1843 44.7606 73.1367 44.6657 73.1367H43.7638H43.6689H43.5739C43.479 73.1367 43.479 73.0892 43.479 73.0417C43.479 72.9941 43.479 72.9941 43.5265 72.9941C43.5265 72.9941 43.5739 72.9466 43.6214 72.9466C43.6214 72.899 43.6689 72.8515 43.6689 72.7089V72.0434V70.4747C43.6689 70.332 43.6689 70.1894 43.6689 70.0944C43.6689 69.9518 43.6689 69.8567 43.6689 69.7141C43.6689 69.619 43.6689 69.5715 43.6214 69.5715L43.5739 69.5239C43.5265 69.5239 43.5265 69.4764 43.5265 69.4764C43.5265 69.4288 43.5739 69.4288 43.6214 69.4288C43.6214 69.4288 43.6689 69.4288 43.7163 69.4288C43.7638 69.4288 43.8113 69.4288 43.8113 69.4288H44.3334C44.4283 69.4288 44.4758 69.4288 44.5233 69.4288C44.5707 69.4288 44.5707 69.4288 44.6182 69.4288C44.6657 69.4288 44.7131 69.4764 44.7131 69.5239C44.7131 69.5715 44.7131 69.5715 44.6657 69.619C44.6657 69.619 44.6182 69.619 44.6182 69.6665C44.6182 69.6665 44.6182 69.6665 44.6182 69.7141V69.9517V70.237C44.6182 70.3796 44.6182 70.5222 44.6182 70.7123C44.6182 70.855 44.6182 70.9976 44.6182 71.1877V72.3761C44.6182 72.5187 44.6182 72.6138 44.6182 72.6614C44.6182 72.7564 44.6182 72.804 44.6182 72.899C44.6182 72.9941 44.6182 73.0417 44.6657 73.0892C44.7131 73.1367 44.7606 73.1367 44.7606 73.1367C44.8081 73.1367 44.8555 73.1367 44.9505 73.0892C45.0454 73.0417 45.0929 72.899 45.0929 72.804C45.0929 72.7089 45.1403 72.6614 45.1878 72.6138C45.2353 72.5663 45.2827 72.5188 45.3302 72.5188C45.2827 72.3286 45.3302 72.3761 45.3302 72.4237ZM47.9408 73.0892C47.9408 73.1367 47.9408 73.1367 47.8934 73.1367C47.8934 73.1367 47.8459 73.1843 47.7984 73.1843C47.751 73.1843 47.751 73.1843 47.7035 73.1843H47.656C47.6086 73.1843 47.6086 73.1843 47.5611 73.1843C47.5136 73.1843 47.5136 73.1843 47.4662 73.1843H47.3713H47.0864H46.8966C46.8491 73.1843 46.8491 73.1843 46.8017 73.1843C46.8017 73.1843 46.7542 73.1843 46.7067 73.1843C46.6118 73.1843 46.5643 73.1367 46.5643 73.0892C46.5643 73.0417 46.6118 72.9941 46.6593 72.9941C46.7067 72.9941 46.7542 72.9466 46.7542 72.9466C46.8017 72.899 46.8017 72.899 46.8017 72.8515V72.7564C46.8017 72.6138 46.7067 72.5187 46.6118 72.4712C46.5169 72.4237 46.4694 72.4237 46.3745 72.4237C46.2321 72.4237 46.1371 72.4712 46.0422 72.5663C45.9947 72.6138 45.9947 72.7089 45.9947 72.804C45.9947 72.899 45.9947 72.9466 46.0422 72.9941C46.0422 73.0417 46.0897 73.0417 46.1371 73.0417C46.1846 73.0417 46.1846 73.0892 46.1846 73.1367C46.1846 73.1843 46.1846 73.1843 46.1846 73.1843C46.1846 73.1843 46.1371 73.2318 46.0897 73.2318H45.9473H45.7574H45.5201H45.4726C45.4251 73.2318 45.3777 73.1843 45.3777 73.1367C45.3777 73.0892 45.4251 73.0417 45.4726 73.0417C45.5201 73.0417 45.5675 72.9941 45.5675 72.9466C45.5675 72.899 45.615 72.8515 45.615 72.7564C45.615 72.6614 45.6625 72.5663 45.6625 72.4712C45.7099 71.9958 45.8049 71.6155 45.8523 71.2828C45.8998 71.0451 45.9473 70.8074 46.0422 70.5697C46.1371 70.2845 46.1371 70.1419 46.1371 70.1419C46.1371 70.0468 46.1846 69.9518 46.1846 69.9042C46.1846 69.8567 46.1846 69.8091 46.1371 69.7616C46.1371 69.7141 46.0897 69.7141 46.0422 69.6665C45.9947 69.619 45.9473 69.619 45.9473 69.5239C45.9473 69.4764 45.9473 69.4764 45.9947 69.4288C46.0422 69.4288 46.0422 69.3813 46.0897 69.3813C46.1371 69.3813 46.1846 69.3813 46.2321 69.3813C46.327 69.3813 46.3745 69.3813 46.3745 69.3813H46.5169C46.5169 69.3813 46.6118 69.3813 46.7067 69.3338C46.8017 69.3338 46.8966 69.3338 46.9441 69.3338C46.9915 69.3338 47.039 69.3338 47.0864 69.3813C47.1339 69.3813 47.1339 69.4288 47.1814 69.5239C47.2288 69.6665 47.3238 70.0468 47.4187 70.6173C47.5136 71.1877 47.6086 71.8057 47.656 72.4712C47.656 72.6614 47.7035 72.7564 47.7035 72.804C47.7035 72.899 47.751 72.9941 47.7984 73.0417L47.8459 73.0892C47.8934 72.9941 47.9408 73.0417 47.9408 73.0892ZM46.7067 71.9483C46.7067 71.8532 46.7067 71.8057 46.7067 71.7582C46.7067 71.7106 46.6593 71.5205 46.6118 71.2828C46.6118 71.1877 46.5643 71.1402 46.5643 71.0926C46.5643 71.0451 46.5643 70.95 46.5643 70.9025V70.8074C46.5643 70.7599 46.5643 70.7123 46.5643 70.7123C46.5643 70.6648 46.5169 70.6648 46.4694 70.6648C46.3745 70.6648 46.2795 70.855 46.1846 71.2353C46.1371 71.5205 46.0897 71.8057 46.0897 71.9483C46.0897 72.0909 46.1371 72.1385 46.1846 72.186C46.2321 72.2335 46.2795 72.2335 46.3745 72.2335H46.4694C46.5643 72.2335 46.6593 72.186 46.6593 72.1385C46.7067 72.0909 46.7067 71.9958 46.7067 71.9483ZM50.0294 69.9517C50.0294 69.9993 50.0294 69.9993 50.0294 70.0468C50.0294 70.0468 49.9819 70.0944 49.9344 70.0944C49.887 70.0944 49.792 70.0944 49.792 70.0468C49.7446 69.9993 49.7446 69.9518 49.7446 69.9042V69.8091V69.7141C49.7446 69.6665 49.7446 69.619 49.6971 69.619C49.6496 69.5715 49.6496 69.5715 49.6022 69.5715C49.5547 69.5715 49.5547 69.5715 49.5072 69.619C49.5072 69.619 49.4598 69.6665 49.4598 69.7141V69.7616C49.4598 69.7616 49.4598 69.8091 49.4598 69.8567C49.4598 69.9042 49.4598 69.9518 49.4598 69.9993C49.4598 70.0468 49.4598 70.1419 49.4598 70.237V70.7123V71.5205V72.0434V72.4237V72.804C49.4598 72.899 49.4598 72.9466 49.4598 72.9466C49.4598 72.9941 49.5072 72.9941 49.5547 73.0417C49.6022 73.0892 49.6022 73.0892 49.6022 73.1367C49.6022 73.1843 49.5547 73.2318 49.4598 73.2318C49.4123 73.2318 49.3648 73.2318 49.3174 73.2318C49.2699 73.2318 49.2224 73.2318 49.2224 73.2318H48.7003C48.6528 73.2318 48.6054 73.2318 48.5579 73.2318C48.5104 73.2318 48.463 73.2318 48.463 73.2318C48.4155 73.2318 48.368 73.1843 48.368 73.1367C48.368 73.0892 48.368 73.0417 48.4155 73.0417C48.4155 73.0417 48.463 73.0417 48.463 72.9941L48.5104 72.9466C48.5104 72.899 48.5104 72.8515 48.5104 72.804V72.3761V71.4254V70.7123C48.5104 70.5222 48.5104 70.332 48.5104 70.1419C48.5104 69.9518 48.5104 69.8091 48.5579 69.7141V69.6665C48.5579 69.619 48.5579 69.5715 48.5104 69.5715C48.5104 69.5715 48.463 69.5239 48.4155 69.5239C48.368 69.5239 48.3206 69.5239 48.3206 69.5715C48.2731 69.619 48.2731 69.6665 48.2731 69.7141V69.8091V69.9042C48.2731 69.9993 48.1782 70.0468 48.0832 70.0468C48.0358 70.0468 47.9883 70.0468 47.9883 69.9993C47.9883 69.9993 47.9408 69.9518 47.9408 69.9042C47.9408 69.8567 47.9408 69.7616 47.9883 69.6665C48.0358 69.5715 48.0358 69.4764 48.0358 69.4288C48.0358 69.3813 48.0358 69.3338 48.0358 69.3338C48.0358 69.3338 48.0832 69.2862 48.1307 69.2862C48.1782 69.2862 48.1782 69.2862 48.2256 69.2862C48.2256 69.2862 48.2731 69.2862 48.3206 69.3338C48.368 69.3338 48.4155 69.3813 48.463 69.3813H49.2699C49.3174 69.3813 49.3648 69.3813 49.3648 69.3813C49.4123 69.3813 49.4598 69.3813 49.5072 69.3338C49.5547 69.3338 49.5547 69.3338 49.6022 69.3338C49.6496 69.3338 49.6496 69.3338 49.6971 69.3338C49.792 69.3338 49.8395 69.3813 49.8395 69.4764L49.887 69.7616C49.887 69.8091 49.887 69.8567 49.9344 69.9042C50.0294 69.8567 50.0294 69.9042 50.0294 69.9517Z" fill="url(#paint53_radial)"/>
<path d="M52.6402 71.1877C52.6402 71.4729 52.6402 71.7581 52.5927 71.9483C52.5452 72.281 52.4028 72.5187 52.213 72.7564C52.0706 72.9466 51.9282 73.0416 51.7858 73.1367C51.6434 73.1842 51.501 73.2318 51.3111 73.2318H51.1212C51.0738 73.2318 51.0263 73.2318 50.9788 73.2318C50.9314 73.2318 50.9314 73.2318 50.8839 73.2318H50.5517C50.5042 73.2318 50.4567 73.2318 50.4093 73.2318C50.3618 73.2318 50.3143 73.2318 50.3143 73.2318C50.2669 73.2318 50.2669 73.2318 50.2194 73.1842C50.1719 73.1842 50.1719 73.1367 50.1719 73.1367C50.1719 73.1367 50.1719 73.0892 50.2194 73.0892C50.2194 73.0892 50.2194 73.0892 50.2669 73.0416C50.3143 73.0416 50.3143 72.9941 50.3143 72.9466C50.3143 72.899 50.3143 72.899 50.3618 72.8515C50.3618 72.8039 50.3618 72.8039 50.3618 72.7564C50.3618 72.7089 50.3618 72.6138 50.3618 72.5187C50.3618 72.4236 50.3618 72.3286 50.3618 72.3286V69.7616C50.3618 69.6665 50.3618 69.619 50.3618 69.619C50.3618 69.5714 50.3618 69.5714 50.3143 69.5239C50.2669 69.5239 50.2669 69.4763 50.2669 69.4288C50.2669 69.3813 50.2669 69.3813 50.3143 69.3813C50.3143 69.3813 50.3618 69.3813 50.4093 69.3813C50.4567 69.3813 50.5042 69.3813 50.5517 69.3813C50.5991 69.3813 50.5991 69.3813 50.6466 69.3813H51.0738C51.1212 69.3813 51.1687 69.3813 51.2162 69.3813C51.3586 69.3813 51.4535 69.3813 51.501 69.3813C51.5959 69.3813 51.6434 69.3813 51.7383 69.4288C51.8332 69.4288 51.8807 69.4763 51.9756 69.5239C52.2604 69.6665 52.4978 69.9517 52.5927 70.332C52.6402 70.5222 52.6402 70.8074 52.6402 71.1877ZM51.6434 71.8057V70.4746C51.6434 70.1894 51.6434 70.0468 51.6434 69.9517C51.6434 69.8566 51.6434 69.7616 51.5959 69.714C51.5959 69.6665 51.5484 69.5714 51.501 69.5714C51.4535 69.5239 51.406 69.5239 51.3586 69.5239C51.3111 69.5239 51.2636 69.5239 51.2636 69.5714C51.2162 69.619 51.2162 69.6665 51.2162 69.714C51.2162 69.7616 51.2162 69.8091 51.2162 69.8091C51.2162 69.8566 51.2162 69.8566 51.2162 69.8566C51.2162 69.9042 51.2636 69.9993 51.2636 70.0943V71.9483V72.5187C51.2636 72.6138 51.2636 72.6613 51.2636 72.7089C51.2636 72.7564 51.2636 72.8039 51.2636 72.8039C51.2636 72.899 51.2636 72.9466 51.3111 72.9466C51.3586 72.9466 51.3586 72.9941 51.406 72.9941C51.501 72.9941 51.5484 72.9466 51.5959 72.8515C51.5959 72.8039 51.6434 72.7564 51.6434 72.6613C51.6434 72.5663 51.6434 72.4712 51.6908 72.3761C51.6908 72.281 51.6908 72.1384 51.6908 71.9958L51.6434 71.8057ZM55.3932 73.0892C55.3932 73.1367 55.3932 73.1367 55.3458 73.1367C55.3458 73.1367 55.2983 73.1842 55.2508 73.1842C55.2034 73.1842 55.2034 73.1842 55.1559 73.1842H55.1084C55.061 73.1842 55.061 73.1842 55.0135 73.1842C54.966 73.1842 54.966 73.1842 54.9186 73.1842H54.8236H54.5388H54.349C54.3015 73.1842 54.3015 73.1842 54.254 73.1842C54.254 73.1842 54.2066 73.1842 54.1591 73.1842C54.0642 73.1842 54.0167 73.1367 54.0167 73.0892C54.0167 73.0416 54.0642 72.9941 54.1116 72.9941C54.1591 72.9941 54.2066 72.9466 54.2066 72.9466C54.254 72.899 54.254 72.899 54.254 72.8515V72.7564C54.254 72.6138 54.1591 72.5187 54.0642 72.4712C53.9692 72.4236 53.9218 72.4236 53.8268 72.4236C53.6844 72.4236 53.5895 72.4712 53.4946 72.5663C53.4471 72.6138 53.4471 72.7089 53.4471 72.8039C53.4471 72.899 53.4471 72.9466 53.4946 72.9941C53.4946 73.0416 53.542 73.0416 53.5895 73.0416C53.637 73.0416 53.637 73.0892 53.637 73.1367C53.637 73.1842 53.637 73.1842 53.637 73.1842C53.637 73.1842 53.5895 73.2318 53.542 73.2318H53.3996H53.2098H52.9724H52.925C52.8775 73.2318 52.83 73.1842 52.83 73.1367C52.83 73.0892 52.8775 73.0416 52.925 73.0416C52.9724 73.0416 53.0199 72.9941 53.0199 72.9466C53.0199 72.899 53.0674 72.8515 53.0674 72.7564C53.0674 72.6613 53.1148 72.5663 53.1148 72.4712C53.1623 71.9958 53.2572 71.6155 53.3047 71.2828C53.3522 71.0451 53.3996 70.8074 53.4946 70.5697C53.5895 70.2845 53.5895 70.1419 53.5895 70.1419C53.5895 70.0468 53.637 69.9517 53.637 69.9042C53.637 69.8566 53.637 69.8091 53.5895 69.7616C53.5895 69.714 53.542 69.714 53.4946 69.6665C53.4471 69.619 53.3996 69.619 53.3996 69.5239C53.3996 69.4763 53.3996 69.4763 53.4471 69.4288C53.4946 69.4288 53.4946 69.3813 53.542 69.3813C53.5895 69.3813 53.637 69.3813 53.6844 69.3813C53.7794 69.3813 53.8268 69.3813 53.8268 69.3813H53.9692C53.9692 69.3813 54.0642 69.3813 54.1591 69.3337C54.254 69.3337 54.349 69.3337 54.3964 69.3337C54.4439 69.3337 54.4914 69.3337 54.5388 69.3813C54.5863 69.3813 54.5863 69.4288 54.6338 69.5239C54.6812 69.6665 54.7762 70.0468 54.8711 70.6172C54.966 71.1877 55.061 71.8057 55.1084 72.4712C55.1084 72.6613 55.1559 72.7564 55.1559 72.8039C55.1559 72.899 55.2034 72.9941 55.2508 73.0416L55.2983 73.0892C55.3458 72.9941 55.3932 73.0416 55.3932 73.0892ZM54.1591 71.9483C54.1591 71.8532 54.1591 71.8057 54.1591 71.7581C54.1591 71.7106 54.1116 71.5204 54.0642 71.2828C54.0642 71.1877 54.0167 71.1401 54.0167 71.0926C54.0167 71.0451 54.0167 70.95 54.0167 70.9025V70.8074C54.0167 70.7598 54.0167 70.7123 54.0167 70.7123C54.0167 70.6648 53.9692 70.6648 53.9218 70.6648C53.8268 70.6648 53.7319 70.8549 53.637 71.2352C53.5895 71.5204 53.542 71.8057 53.542 71.9483C53.542 72.0909 53.5895 72.1384 53.637 72.186C53.6844 72.2335 53.7319 72.2335 53.8268 72.2335H53.9218C54.0167 72.2335 54.1116 72.186 54.1116 72.1384C54.1591 72.0909 54.1591 71.9958 54.1591 71.9483ZM34.0334 70.7599H29.5715V70.5222H34.0334V70.7599Z" fill="url(#paint54_radial)"/>
<defs>
<radialGradient id="paint0_radial" cx="0" cy="0" r="1" gradientUnits="userSpaceOnUse" gradientTransform="translate(35.7015 42.0039) scale(117.383 117.558)">
<stop stop-color="#FBF6A6"/>
<stop offset="1" stop-color="#CAA835"/>
</radialGradient>
<radialGradient id="paint1_radial" cx="0" cy="0" r="1" gradientUnits="userSpaceOnUse" gradientTransform="translate(37.0004 43.4967) scale(49.4069 49.4808)">
<stop stop-color="#FBF6A6"/>
<stop offset="1" stop-color="#D7C265"/>
</radialGradient>
<radialGradient id="paint2_radial" cx="0" cy="0" r="1" gradientUnits="userSpaceOnUse" gradientTransform="translate(22.7796 56.2725) scale(35.0828 35.135)">
<stop stop-color="#F9EF3F"/>
<stop offset="1" stop-color="#A6762E"/>
</radialGradient>
<radialGradient id="paint3_radial" cx="0" cy="0" r="1" gradientUnits="userSpaceOnUse" gradientTransform="translate(51.1983 56.2749) scale(35.0828 35.135)">
<stop stop-color="#F9EF3F"/>
<stop offset="1" stop-color="#A6762E"/>
</radialGradient>
<radialGradient id="paint4_radial" cx="0" cy="0" r="1" gradientUnits="userSpaceOnUse" gradientTransform="translate(47.3234 48.6921) scale(16.2292 16.2534)">
<stop stop-color="#FBF6A6"/>
<stop offset="1" stop-color="#D7C265"/>
</radialGradient>
<radialGradient id="paint5_radial" cx="0" cy="0" r="1" gradientUnits="userSpaceOnUse" gradientTransform="translate(26.6774 48.6921) scale(16.2292 16.2534)">
<stop stop-color="#FBF6A6"/>
<stop offset="1" stop-color="#D7C265"/>
</radialGradient>
<radialGradient id="paint6_radial" cx="0" cy="0" r="1" gradientUnits="userSpaceOnUse" gradientTransform="translate(36.6282 7.39373) scale(21.2833 21.315)">
<stop stop-color="#FBF4CE"/>
<stop offset="0.9882" stop-color="#FDE99E"/>
<stop offset="1" stop-color="#FFDE6F"/>
</radialGradient>
<radialGradient id="paint7_radial" cx="0" cy="0" r="1" gradientUnits="userSpaceOnUse" gradientTransform="translate(36.7712 11.2575) scale(19.8911 19.9213)">
<stop stop-color="#FBF4CE"/>
<stop offset="0.9882" stop-color="#FDE99E"/>
<stop offset="1" stop-color="#FFDE6F"/>
</radialGradient>
<radialGradient id="paint8_radial" cx="0" cy="0" r="1" gradientUnits="userSpaceOnUse" gradientTransform="translate(23.5931 26.3334) scale(28.2109 28.2532)">
<stop stop-color="#F9F2C5"/>
<stop offset="1" stop-color="#CFB575"/>
</radialGradient>
<radialGradient id="paint9_radial" cx="0" cy="0" r="1" gradientUnits="userSpaceOnUse" gradientTransform="translate(37.0004 36.6242) scale(18.64 18.6678)">
<stop stop-color="#FBF6A6"/>
<stop offset="1" stop-color="#D7C265"/>
</radialGradient>
<radialGradient id="paint10_radial" cx="0" cy="0" r="1" gradientUnits="userSpaceOnUse" gradientTransform="translate(22.9519 72.4933) scale(50.0969 50.1716)">
<stop stop-color="#F9EF3F"/>
<stop offset="1" stop-color="#A6762E"/>
</radialGradient>
<radialGradient id="paint11_radial" cx="0" cy="0" r="1" gradientUnits="userSpaceOnUse" gradientTransform="translate(21.9963 78.0938) scale(13.9676 13.989)">
<stop stop-color="#F9EF3F"/>
<stop offset="1" stop-color="#A6762E"/>
</radialGradient>
<radialGradient id="paint12_radial" cx="0" cy="0" r="1" gradientUnits="userSpaceOnUse" gradientTransform="translate(50.9539 72.7157) scale(3.62264 3.62803)">
<stop stop-color="#F9EF3F"/>
<stop offset="1" stop-color="#A6762E"/>
</radialGradient>
<radialGradient id="paint13_radial" cx="0" cy="0" r="1" gradientUnits="userSpaceOnUse" gradientTransform="translate(51.9889 78.0938) scale(4.79757 4.80473)">
<stop stop-color="#F9EF3F"/>
<stop offset="1" stop-color="#A6762E"/>
</radialGradient>
<linearGradient id="paint14_linear" x1="5.45159" y1="62.6302" x2="14.2581" y2="60.7751" gradientUnits="userSpaceOnUse">
<stop stop-color="#FCD550"/>
<stop offset="0.1686" stop-color="#FCD550"/>
<stop offset="0.3804" stop-color="#FFFF93"/>
<stop offset="0.5098" stop-color="#FCD550"/>
<stop offset="0.6392" stop-color="#EDC44B"/>
<stop offset="0.9098" stop-color="#DCB444"/>
<stop offset="1" stop-color="#FCD550"/>
</linearGradient>
<linearGradient id="paint15_linear" x1="3.37574" y1="56.6757" x2="10.513" y2="54.5103" gradientUnits="userSpaceOnUse">
<stop stop-color="#FCD550"/>
<stop offset="0.1686" stop-color="#FCD550"/>
<stop offset="0.3804" stop-color="#FFFF93"/>
<stop offset="0.5098" stop-color="#FCD550"/>
<stop offset="0.6392" stop-color="#EDC44B"/>
<stop offset="0.9098" stop-color="#DCB444"/>
<stop offset="1" stop-color="#FCD550"/>
</linearGradient>
<linearGradient id="paint16_linear" x1="1.91471" y1="50.2616" x2="7.4049" y2="48.3636" gradientUnits="userSpaceOnUse">
<stop stop-color="#FCD550"/>
<stop offset="0.1686" stop-color="#FCD550"/>
<stop offset="0.3804" stop-color="#FFFF93"/>
<stop offset="0.5098" stop-color="#FCD550"/>
<stop offset="0.6392" stop-color="#EDC44B"/>
<stop offset="0.9098" stop-color="#DCB444"/>
<stop offset="1" stop-color="#FCD550"/>
</linearGradient>
<linearGradient id="paint17_linear" x1="1.25637" y1="44.3212" x2="5.55071" y2="42.7509" gradientUnits="userSpaceOnUse">
<stop stop-color="#FCD550"/>
<stop offset="0.1686" stop-color="#FCD550"/>
<stop offset="0.3804" stop-color="#FFFF93"/>
<stop offset="0.5098" stop-color="#FCD550"/>
<stop offset="0.6392" stop-color="#EDC44B"/>
<stop offset="0.9098" stop-color="#DCB444"/>
<stop offset="1" stop-color="#FCD550"/>
</linearGradient>
<linearGradient id="paint18_linear" x1="0.93387" y1="38.4873" x2="4.26091" y2="37.011" gradientUnits="userSpaceOnUse">
<stop stop-color="#FCD550"/>
<stop offset="0.1686" stop-color="#FCD550"/>
<stop offset="0.3804" stop-color="#FFFF93"/>
<stop offset="0.5098" stop-color="#FCD550"/>
<stop offset="0.6392" stop-color="#EDC44B"/>
<stop offset="0.9098" stop-color="#DCB444"/>
<stop offset="1" stop-color="#FCD550"/>
</linearGradient>
<linearGradient id="paint19_linear" x1="1.11448" y1="32.7736" x2="4.22439" y2="31.3903" gradientUnits="userSpaceOnUse">
<stop stop-color="#FCD550"/>
<stop offset="0.1686" stop-color="#FCD550"/>
<stop offset="0.3804" stop-color="#FFFF93"/>
<stop offset="0.5098" stop-color="#FCD550"/>
<stop offset="0.6392" stop-color="#EDC44B"/>
<stop offset="0.9098" stop-color="#DCB444"/>
<stop offset="1" stop-color="#FCD550"/>
</linearGradient>
<linearGradient id="paint20_linear" x1="2.09151" y1="27.2994" x2="5.21836" y2="25.7734" gradientUnits="userSpaceOnUse">
<stop stop-color="#FCD550"/>
<stop offset="0.1686" stop-color="#FCD550"/>
<stop offset="0.3804" stop-color="#FFFF93"/>
<stop offset="0.5098" stop-color="#FCD550"/>
<stop offset="0.6392" stop-color="#EDC44B"/>
<stop offset="0.9098" stop-color="#DCB444"/>
<stop offset="1" stop-color="#FCD550"/>
</linearGradient>
<linearGradient id="paint21_linear" x1="3.66997" y1="22.1952" x2="6.99707" y2="20.4805" gradientUnits="userSpaceOnUse">
<stop stop-color="#FCD550"/>
<stop offset="0.1686" stop-color="#FCD550"/>
<stop offset="0.3804" stop-color="#FFFF93"/>
<stop offset="0.5098" stop-color="#FCD550"/>
<stop offset="0.6392" stop-color="#EDC44B"/>
<stop offset="0.9098" stop-color="#DCB444"/>
<stop offset="1" stop-color="#FCD550"/>
</linearGradient>
<linearGradient id="paint22_linear" x1="5.74588" y1="17.3352" x2="9.47073" y2="15.3105" gradientUnits="userSpaceOnUse">
<stop stop-color="#FCD550"/>
<stop offset="0.1686" stop-color="#FCD550"/>
<stop offset="0.3804" stop-color="#FFFF93"/>
<stop offset="0.5098" stop-color="#FCD550"/>
<stop offset="0.6392" stop-color="#EDC44B"/>
<stop offset="0.9098" stop-color="#DCB444"/>
<stop offset="1" stop-color="#FCD550"/>
</linearGradient>
<linearGradient id="paint23_linear" x1="13.4465" y1="59.6329" x2="17.9229" y2="58.6899" gradientUnits="userSpaceOnUse">
<stop stop-color="#FCD550"/>
<stop offset="0.1686" stop-color="#FCD550"/>
<stop offset="0.3804" stop-color="#FFFF93"/>
<stop offset="0.5098" stop-color="#FCD550"/>
<stop offset="0.6392" stop-color="#EDC44B"/>
<stop offset="0.9098" stop-color="#DCB444"/>
<stop offset="1" stop-color="#FCD550"/>
</linearGradient>
<linearGradient id="paint24_linear" x1="10.3137" y1="54.2204" x2="15.2164" y2="52.7327" gradientUnits="userSpaceOnUse">
<stop stop-color="#FCD550"/>
<stop offset="0.1686" stop-color="#FCD550"/>
<stop offset="0.3804" stop-color="#FFFF93"/>
<stop offset="0.5098" stop-color="#FCD550"/>
<stop offset="0.6392" stop-color="#EDC44B"/>
<stop offset="0.9098" stop-color="#DCB444"/>
<stop offset="1" stop-color="#FCD550"/>
</linearGradient>
<linearGradient id="paint25_linear" x1="7.64242" y1="48.8102" x2="13.2944" y2="46.8557" gradientUnits="userSpaceOnUse">
<stop stop-color="#FCD550"/>
<stop offset="0.1686" stop-color="#FCD550"/>
<stop offset="0.3804" stop-color="#FFFF93"/>
<stop offset="0.5098" stop-color="#FCD550"/>
<stop offset="0.6392" stop-color="#EDC44B"/>
<stop offset="0.9098" stop-color="#DCB444"/>
<stop offset="1" stop-color="#FCD550"/>
</linearGradient>
<linearGradient id="paint26_linear" x1="5.81821" y1="43.459" x2="12.2891" y2="41.094" gradientUnits="userSpaceOnUse">
<stop stop-color="#FCD550"/>
<stop offset="0.1686" stop-color="#FCD550"/>
<stop offset="0.3804" stop-color="#FFFF93"/>
<stop offset="0.5098" stop-color="#FCD550"/>
<stop offset="0.6392" stop-color="#EDC44B"/>
<stop offset="0.9098" stop-color="#DCB444"/>
<stop offset="1" stop-color="#FCD550"/>
</linearGradient>
<linearGradient id="paint27_linear" x1="4.70338" y1="38.6967" x2="11.423" y2="35.7133" gradientUnits="userSpaceOnUse">
<stop stop-color="#FCD550"/>
<stop offset="0.1686" stop-color="#FCD550"/>
<stop offset="0.3804" stop-color="#FFFF93"/>
<stop offset="0.5098" stop-color="#FCD550"/>
<stop offset="0.6392" stop-color="#EDC44B"/>
<stop offset="0.9098" stop-color="#DCB444"/>
<stop offset="1" stop-color="#FCD550"/>
</linearGradient>
<linearGradient id="paint28_linear" x1="4.28546" y1="33.7239" x2="11.2492" y2="30.6267" gradientUnits="userSpaceOnUse">
<stop stop-color="#FCD550"/>
<stop offset="0.1686" stop-color="#FCD550"/>
<stop offset="0.3804" stop-color="#FFFF93"/>
<stop offset="0.5098" stop-color="#FCD550"/>
<stop offset="0.6392" stop-color="#EDC44B"/>
<stop offset="0.9098" stop-color="#DCB444"/>
<stop offset="1" stop-color="#FCD550"/>
</linearGradient>
<linearGradient id="paint29_linear" x1="4.84582" y1="28.761" x2="11.7067" y2="25.4132" gradientUnits="userSpaceOnUse">
<stop stop-color="#FCD550"/>
<stop offset="0.1686" stop-color="#FCD550"/>
<stop offset="0.3804" stop-color="#FFFF93"/>
<stop offset="0.5098" stop-color="#FCD550"/>
<stop offset="0.6392" stop-color="#EDC44B"/>
<stop offset="0.9098" stop-color="#DCB444"/>
<stop offset="1" stop-color="#FCD550"/>
</linearGradient>
<linearGradient id="paint30_linear" x1="6.01365" y1="24.1062" x2="12.8224" y2="20.5965" gradientUnits="userSpaceOnUse">
<stop stop-color="#FCD550"/>
<stop offset="0.1686" stop-color="#FCD550"/>
<stop offset="0.3804" stop-color="#FFFF93"/>
<stop offset="0.5098" stop-color="#FCD550"/>
<stop offset="0.6392" stop-color="#EDC44B"/>
<stop offset="0.9098" stop-color="#DCB444"/>
<stop offset="1" stop-color="#FCD550"/>
</linearGradient>
<linearGradient id="paint31_linear" x1="7.81067" y1="19.5324" x2="14.4513" y2="15.9238" gradientUnits="userSpaceOnUse">
<stop stop-color="#FCD550"/>
<stop offset="0.1686" stop-color="#FCD550"/>
<stop offset="0.3804" stop-color="#FFFF93"/>
<stop offset="0.5098" stop-color="#FCD550"/>
<stop offset="0.6392" stop-color="#EDC44B"/>
<stop offset="0.9098" stop-color="#DCB444"/>
<stop offset="1" stop-color="#FCD550"/>
</linearGradient>
<linearGradient id="paint32_linear" x1="9.24378" y1="14.6843" x2="15.3368" y2="11.0829" gradientUnits="userSpaceOnUse">
<stop stop-color="#FCD550"/>
<stop offset="0.1686" stop-color="#FCD550"/>
<stop offset="0.3804" stop-color="#FFFF93"/>
<stop offset="0.5098" stop-color="#FCD550"/>
<stop offset="0.6392" stop-color="#EDC44B"/>
<stop offset="0.9098" stop-color="#DCB444"/>
<stop offset="1" stop-color="#FCD550"/>
</linearGradient>
<linearGradient id="paint33_linear" x1="68.5404" y1="62.6302" x2="59.7339" y2="60.7751" gradientUnits="userSpaceOnUse">
<stop stop-color="#FCD550"/>
<stop offset="0.1686" stop-color="#FCD550"/>
<stop offset="0.3804" stop-color="#FFFF93"/>
<stop offset="0.5098" stop-color="#FCD550"/>
<stop offset="0.6392" stop-color="#EDC44B"/>
<stop offset="0.9098" stop-color="#DCB444"/>
<stop offset="1" stop-color="#FCD550"/>
</linearGradient>
<linearGradient id="paint34_linear" x1="70.6157" y1="56.6757" x2="63.4788" y2="54.5102" gradientUnits="userSpaceOnUse">
<stop stop-color="#FCD550"/>
<stop offset="0.1686" stop-color="#FCD550"/>
<stop offset="0.3804" stop-color="#FFFF93"/>
<stop offset="0.5098" stop-color="#FCD550"/>
<stop offset="0.6392" stop-color="#EDC44B"/>
<stop offset="0.9098" stop-color="#DCB444"/>
<stop offset="1" stop-color="#FCD550"/>
</linearGradient>
<linearGradient id="paint35_linear" x1="72.0772" y1="50.2615" x2="66.5866" y2="48.3636" gradientUnits="userSpaceOnUse">
<stop stop-color="#FCD550"/>
<stop offset="0.1686" stop-color="#FCD550"/>
<stop offset="0.3804" stop-color="#FFFF93"/>
<stop offset="0.5098" stop-color="#FCD550"/>
<stop offset="0.6392" stop-color="#EDC44B"/>
<stop offset="0.9098" stop-color="#DCB444"/>
<stop offset="1" stop-color="#FCD550"/>
</linearGradient>
<linearGradient id="paint36_linear" x1="72.7354" y1="44.3211" x2="68.4409" y2="42.7508" gradientUnits="userSpaceOnUse">
<stop stop-color="#FCD550"/>
<stop offset="0.1686" stop-color="#FCD550"/>
<stop offset="0.3804" stop-color="#FFFF93"/>
<stop offset="0.5098" stop-color="#FCD550"/>
<stop offset="0.6392" stop-color="#EDC44B"/>
<stop offset="0.9098" stop-color="#DCB444"/>
<stop offset="1" stop-color="#FCD550"/>
</linearGradient>
<linearGradient id="paint37_linear" x1="73.0577" y1="38.4874" x2="69.7309" y2="37.011" gradientUnits="userSpaceOnUse">
<stop stop-color="#FCD550"/>
<stop offset="0.1686" stop-color="#FCD550"/>
<stop offset="0.3804" stop-color="#FFFF93"/>
<stop offset="0.5098" stop-color="#FCD550"/>
<stop offset="0.6392" stop-color="#EDC44B"/>
<stop offset="0.9098" stop-color="#DCB444"/>
<stop offset="1" stop-color="#FCD550"/>
</linearGradient>
<linearGradient id="paint38_linear" x1="72.877" y1="32.7735" x2="69.7675" y2="31.3904" gradientUnits="userSpaceOnUse">
<stop stop-color="#FCD550"/>
<stop offset="0.1686" stop-color="#FCD550"/>
<stop offset="0.3804" stop-color="#FFFF93"/>
<stop offset="0.5098" stop-color="#FCD550"/>
<stop offset="0.6392" stop-color="#EDC44B"/>
<stop offset="0.9098" stop-color="#DCB444"/>
<stop offset="1" stop-color="#FCD550"/>
</linearGradient>
<linearGradient id="paint39_linear" x1="71.9002" y1="27.2995" x2="68.7735" y2="25.7734" gradientUnits="userSpaceOnUse">
<stop stop-color="#FCD550"/>
<stop offset="0.1686" stop-color="#FCD550"/>
<stop offset="0.3804" stop-color="#FFFF93"/>
<stop offset="0.5098" stop-color="#FCD550"/>
<stop offset="0.6392" stop-color="#EDC44B"/>
<stop offset="0.9098" stop-color="#DCB444"/>
<stop offset="1" stop-color="#FCD550"/>
</linearGradient>
<linearGradient id="paint40_linear" x1="70.3217" y1="22.1953" x2="66.9946" y2="20.4804" gradientUnits="userSpaceOnUse">
<stop stop-color="#FCD550"/>
<stop offset="0.1686" stop-color="#FCD550"/>
<stop offset="0.3804" stop-color="#FFFF93"/>
<stop offset="0.5098" stop-color="#FCD550"/>
<stop offset="0.6392" stop-color="#EDC44B"/>
<stop offset="0.9098" stop-color="#DCB444"/>
<stop offset="1" stop-color="#FCD550"/>
</linearGradient>
<linearGradient id="paint41_linear" x1="68.2455" y1="17.3349" x2="64.5205" y2="15.3107" gradientUnits="userSpaceOnUse">
<stop stop-color="#FCD550"/>
<stop offset="0.1686" stop-color="#FCD550"/>
<stop offset="0.3804" stop-color="#FFFF93"/>
<stop offset="0.5098" stop-color="#FCD550"/>
<stop offset="0.6392" stop-color="#EDC44B"/>
<stop offset="0.9098" stop-color="#DCB444"/>
<stop offset="1" stop-color="#FCD550"/>
</linearGradient>
<linearGradient id="paint42_linear" x1="60.5449" y1="59.6329" x2="56.0685" y2="58.6899" gradientUnits="userSpaceOnUse">
<stop stop-color="#FCD550"/>
<stop offset="0.1686" stop-color="#FCD550"/>
<stop offset="0.3804" stop-color="#FFFF93"/>
<stop offset="0.5098" stop-color="#FCD550"/>
<stop offset="0.6392" stop-color="#EDC44B"/>
<stop offset="0.9098" stop-color="#DCB444"/>
<stop offset="1" stop-color="#FCD550"/>
</linearGradient>
<linearGradient id="paint43_linear" x1="63.6778" y1="54.2203" x2="58.7752" y2="52.7328" gradientUnits="userSpaceOnUse">
<stop stop-color="#FCD550"/>
<stop offset="0.1686" stop-color="#FCD550"/>
<stop offset="0.3804" stop-color="#FFFF93"/>
<stop offset="0.5098" stop-color="#FCD550"/>
<stop offset="0.6392" stop-color="#EDC44B"/>
<stop offset="0.9098" stop-color="#DCB444"/>
<stop offset="1" stop-color="#FCD550"/>
</linearGradient>
<linearGradient id="paint44_linear" x1="66.3491" y1="48.8101" x2="60.6969" y2="46.8556" gradientUnits="userSpaceOnUse">
<stop stop-color="#FCD550"/>
<stop offset="0.1686" stop-color="#FCD550"/>
<stop offset="0.3804" stop-color="#FFFF93"/>
<stop offset="0.5098" stop-color="#FCD550"/>
<stop offset="0.6392" stop-color="#EDC44B"/>
<stop offset="0.9098" stop-color="#DCB444"/>
<stop offset="1" stop-color="#FCD550"/>
</linearGradient>
<linearGradient id="paint45_linear" x1="68.1735" y1="43.459" x2="61.7027" y2="41.094" gradientUnits="userSpaceOnUse">
<stop stop-color="#FCD550"/>
<stop offset="0.1686" stop-color="#FCD550"/>
<stop offset="0.3804" stop-color="#FFFF93"/>
<stop offset="0.5098" stop-color="#FCD550"/>
<stop offset="0.6392" stop-color="#EDC44B"/>
<stop offset="0.9098" stop-color="#DCB444"/>
<stop offset="1" stop-color="#FCD550"/>
</linearGradient>
<linearGradient id="paint46_linear" x1="69.2879" y1="38.6965" x2="62.5685" y2="35.7133" gradientUnits="userSpaceOnUse">
<stop stop-color="#FCD550"/>
<stop offset="0.1686" stop-color="#FCD550"/>
<stop offset="0.3804" stop-color="#FFFF93"/>
<stop offset="0.5098" stop-color="#FCD550"/>
<stop offset="0.6392" stop-color="#EDC44B"/>
<stop offset="0.9098" stop-color="#DCB444"/>
<stop offset="1" stop-color="#FCD550"/>
</linearGradient>
<linearGradient id="paint47_linear" x1="69.7061" y1="33.7238" x2="62.7424" y2="30.6266" gradientUnits="userSpaceOnUse">
<stop stop-color="#FCD550"/>
<stop offset="0.1686" stop-color="#FCD550"/>
<stop offset="0.3804" stop-color="#FFFF93"/>
<stop offset="0.5098" stop-color="#FCD550"/>
<stop offset="0.6392" stop-color="#EDC44B"/>
<stop offset="0.9098" stop-color="#DCB444"/>
<stop offset="1" stop-color="#FCD550"/>
</linearGradient>
<linearGradient id="paint48_linear" x1="69.1458" y1="28.7605" x2="62.2848" y2="25.4135" gradientUnits="userSpaceOnUse">
<stop stop-color="#FCD550"/>
<stop offset="0.1686" stop-color="#FCD550"/>
<stop offset="0.3804" stop-color="#FFFF93"/>
<stop offset="0.5098" stop-color="#FCD550"/>
<stop offset="0.6392" stop-color="#EDC44B"/>
<stop offset="0.9098" stop-color="#DCB444"/>
<stop offset="1" stop-color="#FCD550"/>
</linearGradient>
<linearGradient id="paint49_linear" x1="67.9778" y1="24.1059" x2="61.1693" y2="20.5966" gradientUnits="userSpaceOnUse">
<stop stop-color="#FCD550"/>
<stop offset="0.1686" stop-color="#FCD550"/>
<stop offset="0.3804" stop-color="#FFFF93"/>
<stop offset="0.5098" stop-color="#FCD550"/>
<stop offset="0.6392" stop-color="#EDC44B"/>
<stop offset="0.9098" stop-color="#DCB444"/>
<stop offset="1" stop-color="#FCD550"/>
</linearGradient>
<linearGradient id="paint50_linear" x1="66.1815" y1="19.5322" x2="59.5405" y2="15.9243" gradientUnits="userSpaceOnUse">
<stop stop-color="#FCD550"/>
<stop offset="0.1686" stop-color="#FCD550"/>
<stop offset="0.3804" stop-color="#FFFF93"/>
<stop offset="0.5098" stop-color="#FCD550"/>
<stop offset="0.6392" stop-color="#EDC44B"/>
<stop offset="0.9098" stop-color="#DCB444"/>
<stop offset="1" stop-color="#FCD550"/>
</linearGradient>
<linearGradient id="paint51_linear" x1="64.7479" y1="14.6842" x2="58.6549" y2="11.0828" gradientUnits="userSpaceOnUse">
<stop stop-color="#FCD550"/>
<stop offset="0.1686" stop-color="#FCD550"/>
<stop offset="0.3804" stop-color="#FFFF93"/>
<stop offset="0.5098" stop-color="#FCD550"/>
<stop offset="0.6392" stop-color="#EDC44B"/>
<stop offset="0.9098" stop-color="#DCB444"/>
<stop offset="1" stop-color="#FCD550"/>
</linearGradient>
<radialGradient id="paint52_radial" cx="0" cy="0" r="1" gradientUnits="userSpaceOnUse" gradientTransform="translate(36.0005 71.2439) scale(28.1007 28.1423)">
<stop stop-color="#FBF6A6"/>
<stop offset="1" stop-color="#CAA835"/>
</radialGradient>
<radialGradient id="paint53_radial" cx="0" cy="0" r="1" gradientUnits="userSpaceOnUse" gradientTransform="translate(37.7304 73.0199) scale(20.5284 20.5597)">
<stop stop-color="#F3C85D"/>
<stop offset="1" stop-color="#A9915D"/>
</radialGradient>
<radialGradient id="paint54_radial" cx="0" cy="0" r="1" gradientUnits="userSpaceOnUse" gradientTransform="translate(37.7376 73.0197) scale(18.7074 18.7358)">
<stop stop-color="#F3C85D"/>
<stop offset="1" stop-color="#A9915D"/>
</radialGradient>
</defs>
</svg>
