<svg width="32" height="32" viewBox="0 0 32 32" fill="none" xmlns="http://www.w3.org/2000/svg">
<rect x="1" y="1" width="30" height="30" rx="15" stroke="#424769" stroke-width="2"/>
<path d="M13.5 25H16.5C17.0523 25 17.5 24.5523 17.5 24V17.5H19.7192C20.1781 17.5 20.5781 17.1877 20.6894 16.7425L21.5 13.5H17.5V11C17.5 10.4477 17.9477 10 18.5 10H21C21.5523 10 22 9.55228 22 9V7H17.5C15.2909 7 13.5 8.79086 13.5 11V13.5H11C10.4477 13.5 10 13.9477 10 14.5V17.5H13.5V25Z" stroke="#424769" stroke-width="2"/>
</svg>
