<svg width="32" height="32" viewBox="0 0 32 32" fill="none" xmlns="http://www.w3.org/2000/svg">
<rect x="1" y="1" width="30" height="30" rx="15" stroke="#424769" stroke-width="2"/>
<path d="M16 24C14.2846 24 13.0502 23.9992 12.0878 23.9058C11.1364 23.8136 10.5278 23.6364 10.0421 23.3312C9.48694 22.9824 9.01754 22.513 8.66873 21.9579C8.36364 21.4722 8.1863 20.8636 8.09418 19.9122C8.00085 18.9498 8 17.7154 8 16C8 14.2846 8.00085 13.0502 8.09418 12.0878C8.1863 11.1364 8.36364 10.5278 8.66873 10.0421C9.01752 9.48693 9.48693 9.01752 10.0421 8.66873C10.5278 8.36364 11.1364 8.1863 12.0878 8.09418C13.0501 8.00085 14.2845 8 16 8C17.7154 8 18.9498 8.00085 19.9122 8.09418C20.8636 8.1863 21.4722 8.36364 21.9579 8.66873C22.513 9.01754 22.9824 9.48694 23.3312 10.0421C23.6364 10.5278 23.8136 11.1364 23.9058 12.0878C23.9992 13.0502 24 14.2846 24 16C24 17.7154 23.9992 18.9498 23.9058 19.9122C23.8136 20.8636 23.6364 21.4722 23.3312 21.9579C22.9824 22.513 22.513 22.9824 21.9579 23.3312C21.4722 23.6364 20.8636 23.8136 19.9122 23.9058C18.9498 23.9992 17.7154 24 16 24Z" stroke="#424769" stroke-width="2"/>
<path d="M16 19.75C18.0711 19.75 19.75 18.0711 19.75 16C19.75 13.9289 18.0711 12.25 16 12.25C13.9289 12.25 12.25 13.9289 12.25 16C12.25 18.0711 13.9289 19.75 16 19.75Z" stroke="#424769" stroke-width="2"/>
<path d="M20.5833 12.6667C21.2736 12.6667 21.8333 12.107 21.8333 11.4167C21.8333 10.7263 21.2736 10.1667 20.5833 10.1667C19.8929 10.1667 19.3333 10.7263 19.3333 11.4167C19.3333 12.107 19.8929 12.6667 20.5833 12.6667Z" fill="#424769"/>
</svg>
