<?xml version="1.0" encoding="utf-8"?>
<!-- Uploaded to: SVG Repo, www.svgrepo.com, Generator: SVG Repo Mixer Tools -->
<svg fill="#2E4374" version="1.1" id="Layer_1" xmlns="http://www.w3.org/2000/svg" xmlns:xlink="http://www.w3.org/1999/xlink" 
	 width="800px" height="800px" viewBox="0 0 256 256" enable-background="new 0 0 256 256" xml:space="preserve">
<path d="M192.498,124.8c9.278,0,16.8,7.522,16.8,16.8s-7.522,16.8-16.8,16.8s-16.8-7.522-16.8-16.8S183.22,124.8,192.498,124.8z
	 M171.798,166.6c9.278,0,16.8,7.522,16.8,16.8s-7.522,16.8-16.8,16.8s-16.8-7.522-16.8-16.8S162.52,166.6,171.798,166.6z
	 M144.998,203.3h-18.9h-18.9c-11.5,0-18.7,9.5-18.7,21.4V254h12.9v-25.9c0-1.2,1-2,2-2c1.2,0,2,0.8,2,2v25.8h41.5v-25.8
	c0-1.2,1-2,2-2c1.2,0,2,1,2,2v25.8h12.9v-29.1C163.998,212.8,156.698,203.3,144.998,203.3z M149.698,124.8
	c9.278,0,16.8,7.522,16.8,16.8s-7.522,16.8-16.8,16.8s-16.8-7.522-16.8-16.8S140.42,124.8,149.698,124.8z M199.098,183.4
	c0,9.3,7.5,16.8,16.8,16.8s16.8-7.5,16.8-16.8s-7.5-16.8-16.8-16.8S199.098,174.1,199.098,183.4z M197.398,203.3
	c-11.5,0-18.7,9.5-18.7,21.4V254h12.9v-25.9c0-1.2,1-2,2-2c1.2,0,2,0.8,2,2v25.8h41.5v-25.8c0-1.2,1-2,2-2c1.2,0,2,1,2,2v25.8h12.9
	v-29.1c0.2-12.1-7.1-21.6-18.7-21.6h-18.9h-19V203.3z M39.798,166.6c9.278,0,16.8,7.522,16.8,16.8s-7.522,16.8-16.8,16.8
	s-16.8-7.522-16.8-16.8S30.52,166.6,39.798,166.6z M14.798,253.9v-25.8c0-1.2,1-2,2-2c1.2,0,2,0.8,2,2v25.8h41.5v-25.8
	c0-1.2,1-2,2-2c1.2,0,2,1,2,2v25.8h12.9v-29.1c0.2-12.1-7.1-21.6-18.7-21.6h-18.9h-18.9c-11.5,0-18.7,9.5-18.7,21.4v29.3
	L14.798,253.9L14.798,253.9z M109.298,183.4c0,9.3,7.5,16.8,16.8,16.8c9.3,0,16.8-7.5,16.8-16.8s-7.5-16.8-16.8-16.8
	S109.298,174.1,109.298,183.4z M61.298,124.8c9.278,0,16.8,7.522,16.8,16.8s-7.522,16.8-16.8,16.8s-16.8-7.522-16.8-16.8
	S52.02,124.8,61.298,124.8z M106.698,124.8c9.278,0,16.8,7.522,16.8,16.8s-7.522,16.8-16.8,16.8s-16.8-7.522-16.8-16.8
	S97.42,124.8,106.698,124.8z M84.098,166.6c9.278,0,16.8,7.522,16.8,16.8s-7.522,16.8-16.8,16.8s-16.8-7.522-16.8-16.8
	S74.82,166.6,84.098,166.6z M173.352,93.441V9.166h-16.96v84.275h-5.685V27.798h-16.96v65.643h-5.733V59.855h-16.96v33.586h-5.685
	V76.338h-16.96v17.103h-9.603V2h-6.43v98h111.248v-6.43v-0.129H173.352z"/>
</svg>