<svg width="32" height="32" viewBox="0 0 32 32" fill="none" xmlns="http://www.w3.org/2000/svg">
<rect x="1" y="1" width="30" height="30" rx="15" stroke="#424769" stroke-width="2"/>
<path fill-rule="evenodd" clip-rule="evenodd" d="M18.7157 9.82845C17.0884 9.82845 15.7694 11.0916 15.7694 12.6498C15.7694 12.8404 15.789 13.0258 15.8261 13.2044C15.8859 13.4922 15.7978 13.7899 15.5894 14.0049C15.381 14.2199 15.0775 14.326 14.7734 14.2903C12.6651 14.0426 10.7474 13.2084 9.20309 11.965C9.23317 12.5152 9.43238 13.0998 9.86473 13.7122L10.5128 14.6301L9.44858 15.065L9.24324 15.1489C9.39587 15.316 9.57937 15.4877 9.78424 15.6564C10.0167 15.8478 10.2414 16.0068 10.4082 16.118C10.4911 16.1732 10.5584 16.2157 10.6034 16.2436C10.6259 16.2575 10.6428 16.2677 10.6532 16.2739L10.6638 16.2802L10.6646 16.2807L12.1432 17.1391L10.596 17.8799C10.5194 17.9166 10.443 17.9493 10.3669 17.9784C10.6774 18.229 11.0555 18.4597 11.4576 18.6417L12.7845 19.2424L11.6733 20.1604C11.0667 20.6616 10.4565 21.0352 9.66564 21.2326C10.8374 21.8314 12.1801 22.1715 13.6086 22.1715C18.1962 22.1715 21.8911 18.6659 21.8911 14.3695V13.8944L22.2971 13.6214C22.9308 13.1952 23.3789 12.6189 23.6997 11.9601H22.2398H21.637L21.3779 11.4389C20.9035 10.4848 19.8887 9.82845 18.7157 9.82845ZM7.9465 16.502C7.76653 16.6994 7.68119 16.9647 7.72034 17.2308C7.82804 17.9631 8.286 18.5938 8.79203 19.0752C8.92946 19.206 9.07643 19.3315 9.23075 19.4512C9.20717 19.4575 9.18341 19.4635 9.15943 19.4693C8.69986 19.5794 8.08059 19.6024 7.04784 19.5055C6.64856 19.468 6.26743 19.6736 6.09393 20.02C5.92042 20.3663 5.99157 20.7796 6.27199 21.0544C8.1261 22.8708 10.7298 24 13.6086 24C19.0626 24 23.5363 19.9448 23.7893 14.827C25.0203 13.8368 25.6366 12.4964 25.969 11.2767C26.0438 11.0027 25.9816 10.7111 25.8008 10.4869C25.62 10.2628 25.341 10.1316 25.0453 10.1316H22.7982C21.9346 8.8503 20.4295 8 18.7157 8C16.1675 8 14.0777 9.87956 13.8759 12.2699C12.0915 11.827 10.5259 10.8607 9.36888 9.55019C9.15784 9.31115 8.83376 9.1921 8.50991 9.23468C8.18606 9.27726 7.90747 9.47552 7.77153 9.76019C7.19422 10.969 7.08296 12.3632 7.72915 13.7797L7.50603 13.8709C7.06418 14.0515 6.83129 14.5184 6.96225 14.961C7.13874 15.5575 7.53833 16.0842 7.9465 16.502Z" fill="#424769"/>
</svg>
